{
	"asset":{
		"generator":"Khronos glTF Blender I/O v4.1.63",
		"version":"2.0"
	},
	"scene":0,
	"scenes":[
		{
			"name":"Scene",
			"nodes":[
				12,
				15
			]
		}
	],
	"nodes":[
		{
			"mesh":0,
			"name":"Base__0"
		},
		{
			"children":[
				0
			],
			"name":"Base",
			"rotation":[
				-0.70710688829422,
				0,
				0,
				0.7071066498756409
			],
			"scale":[
				100,
				99.99998474121094,
				99.99998474121094
			]
		},
		{
			"mesh":1,
			"name":"ChainBlack__0"
		},
		{
			"children":[
				2
			],
			"name":"ChainBlack",
			"rotation":[
				-0.70710688829422,
				0,
				0,
				0.7071066498756409
			],
			"scale":[
				100,
				99.99998474121094,
				99.99998474121094
			]
		},
		{
			"mesh":2,
			"name":"ChainYellow__0"
		},
		{
			"children":[
				4
			],
			"name":"ChainYellow",
			"rotation":[
				-0.70710688829422,
				0,
				0,
				0.7071066498756409
			],
			"scale":[
				100,
				99.99998474121094,
				99.99998474121094
			]
		},
		{
			"mesh":3,
			"name":"Pole__0"
		},
		{
			"children":[
				6
			],
			"name":"Pole",
			"rotation":[
				-0.70710688829422,
				0,
				0,
				0.7071066498756409
			],
			"scale":[
				100,
				99.99998474121094,
				99.99998474121094
			]
		},
		{
			"mesh":4,
			"name":"Sign__0"
		},
		{
			"children":[
				8
			],
			"name":"Sign",
			"rotation":[
				-0.70710688829422,
				0,
				0,
				0.7071066498756409
			],
			"scale":[
				100,
				99.99998474121094,
				99.99998474121094
			]
		},
		{
			"children":[
				1,
				3,
				5,
				7,
				9
			],
			"name":"RootNode"
		},
		{
			"children":[
				10
			],
			"name":"ChainBarrier.fbx",
			"rotation":[
				0.70710688829422,
				0,
				0,
				0.7071066498756409
			]
		},
		{
			"children":[
				11
			],
			"name":"Sketchfab_model",
			"rotation":[
				-0.70710688829422,
				0,
				0,
				0.7071066498756409
			],
			"scale":[
				1,
				1,
				1.2900569438934326
			],
			"translation":[
				0,
				-1.050215244293213,
				0
			]
		},
		{
			"mesh":5,
			"name":"Object_2",
			"rotation":[
				-0.9999985098838806,
				0,
				0.001229776768013835,
				0.0012936650309711695
			],
			"translation":[
				0,
				0,
				4.000961780548096e-06
			]
		},
		{
			"children":[
				13
			],
			"name":"PureLumin Essence Pricing.obj.cleaner.materialmerger.gles",
			"translation":[
				0,
				0,
				4.000961780548096e-06
			]
		},
		{
			"children":[
				14
			],
			"name":"Sketchfab_model.001",
			"rotation":[
				-0.49981600046157837,
				-0.5001839399337769,
				0.5001839399337769,
				0.49981600046157837
			],
			"scale":[
				3.0100722312927246,
				3.156196117401123,
				1.000002145767212
			],
			"translation":[
				-29.915630340576172,
				147.36376953125,
				0
			]
		}
	],
	"materials":[
		{
			"doubleSided":true,
			"name":"Scene_-_Root",
			"normalTexture":{
				"index":0
			},
			"pbrMetallicRoughness":{
				"baseColorTexture":{
					"index":1
				},
				"metallicRoughnessTexture":{
					"index":2
				},
				"roughnessFactor":0.1690167635679245
			}
		},
		{
			"doubleSided":true,
			"name":"mat_44843296",
			"pbrMetallicRoughness":{
				"baseColorTexture":{
					"index":3
				},
				"metallicFactor":0
			}
		}
	],
	"meshes":[
		{
			"name":"Base__0",
			"primitives":[
				{
					"attributes":{
						"POSITION":0,
						"NORMAL":1,
						"TEXCOORD_0":2
					},
					"indices":3,
					"material":0
				}
			]
		},
		{
			"name":"ChainBlack__0",
			"primitives":[
				{
					"attributes":{
						"POSITION":4,
						"NORMAL":5,
						"TEXCOORD_0":6
					},
					"indices":7,
					"material":0
				}
			]
		},
		{
			"name":"ChainYellow__0",
			"primitives":[
				{
					"attributes":{
						"POSITION":8,
						"NORMAL":9,
						"TEXCOORD_0":10
					},
					"indices":11,
					"material":0
				}
			]
		},
		{
			"name":"Pole__0",
			"primitives":[
				{
					"attributes":{
						"POSITION":12,
						"NORMAL":13,
						"TEXCOORD_0":14
					},
					"indices":15,
					"material":0
				}
			]
		},
		{
			"name":"Sign__0",
			"primitives":[
				{
					"attributes":{
						"POSITION":16,
						"NORMAL":17,
						"TEXCOORD_0":18
					},
					"indices":19,
					"material":0
				}
			]
		},
		{
			"name":"Object_0",
			"primitives":[
				{
					"attributes":{
						"POSITION":20,
						"NORMAL":21,
						"TEXCOORD_0":22
					},
					"indices":23,
					"material":1
				}
			]
		}
	],
	"textures":[
		{
			"sampler":0,
			"source":0
		},
		{
			"sampler":0,
			"source":1
		},
		{
			"sampler":0,
			"source":2
		},
		{
			"sampler":0,
			"source":3
		}
	],
	"images":[
		{
			"mimeType":"image/png",
			"name":"Scene_-_Root_normal",
			"uri":"Scene_-_Root_normal.png"
		},
		{
			"mimeType":"image/png",
			"name":"Scene_-_Root_baseColor",
			"uri":"Scene_-_Root_baseColor.png"
		},
		{
			"mimeType":"image/png",
			"name":"Scene_-_Root_metallicRoughness",
			"uri":"Scene_-_Root_metallicRoughness.png"
		},
		{
			"mimeType":"image/png",
			"name":"mat_44843296_baseColor",
			"uri":"mat_44843296_baseColor.png"
		}
	],
	"accessors":[
		{
			"bufferView":0,
			"componentType":5126,
			"count":464,
			"max":[
				0.2369239181280136,
				1.2536201477050781,
				0.13008517026901245
			],
			"min":[
				-0.23692384362220764,
				-1.2429450750350952,
				0.02746777981519699
			],
			"type":"VEC3"
		},
		{
			"bufferView":1,
			"componentType":5126,
			"count":464,
			"type":"VEC3"
		},
		{
			"bufferView":2,
			"componentType":5126,
			"count":464,
			"type":"VEC2"
		},
		{
			"bufferView":3,
			"componentType":5123,
			"count":1320,
			"type":"SCALAR"
		},
		{
			"bufferView":4,
			"componentType":5126,
			"count":1248,
			"max":[
				0.03529388830065727,
				0.8054736852645874,
				1.1772211790084839
			],
			"min":[
				-0.0688902959227562,
				-0.5655674338340759,
				0.8192103505134583
			],
			"type":"VEC3"
		},
		{
			"bufferView":5,
			"componentType":5126,
			"count":1248,
			"type":"VEC3"
		},
		{
			"bufferView":6,
			"componentType":5126,
			"count":1248,
			"type":"VEC2"
		},
		{
			"bufferView":7,
			"componentType":5123,
			"count":2880,
			"type":"SCALAR"
		},
		{
			"bufferView":8,
			"componentType":5126,
			"count":1248,
			"max":[
				0.037941403687000275,
				0.9503542184829712,
				1.3170228004455566
			],
			"min":[
				-0.04166271910071373,
				-0.9343379139900208,
				0.8939659595489502
			],
			"type":"VEC3"
		},
		{
			"bufferView":9,
			"componentType":5126,
			"count":1248,
			"type":"VEC3"
		},
		{
			"bufferView":10,
			"componentType":5126,
			"count":1248,
			"type":"VEC2"
		},
		{
			"bufferView":11,
			"componentType":5123,
			"count":2880,
			"type":"SCALAR"
		},
		{
			"bufferView":12,
			"componentType":5126,
			"count":760,
			"max":[
				0.06635676324367523,
				1.1273773908615112,
				1.3522733449935913
			],
			"min":[
				-0.06635671108961105,
				-1.1167020797729492,
				0.06681402027606964
			],
			"type":"VEC3"
		},
		{
			"bufferView":13,
			"componentType":5126,
			"count":760,
			"type":"VEC3"
		},
		{
			"bufferView":14,
			"componentType":5126,
			"count":760,
			"type":"VEC2"
		},
		{
			"bufferView":15,
			"componentType":5123,
			"count":2088,
			"type":"SCALAR"
		},
		{
			"bufferView":16,
			"componentType":5126,
			"count":498,
			"max":[
				-0.004193460568785667,
				0.24140313267707825,
				0.8720203042030334
			],
			"min":[
				-0.04231090843677521,
				-0.31857043504714966,
				0.5195325016975403
			],
			"type":"VEC3"
		},
		{
			"bufferView":17,
			"componentType":5126,
			"count":498,
			"type":"VEC3"
		},
		{
			"bufferView":18,
			"componentType":5126,
			"count":498,
			"type":"VEC2"
		},
		{
			"bufferView":19,
			"componentType":5123,
			"count":732,
			"type":"SCALAR"
		},
		{
			"bufferView":20,
			"componentType":5126,
			"count":4,
			"max":[
				10,
				12.9180326461792,
				0
			],
			"min":[
				-10,
				-12.9180326461792,
				0
			],
			"type":"VEC3"
		},
		{
			"bufferView":21,
			"componentType":5126,
			"count":4,
			"type":"VEC3"
		},
		{
			"bufferView":22,
			"componentType":5126,
			"count":4,
			"type":"VEC2"
		},
		{
			"bufferView":23,
			"componentType":5123,
			"count":6,
			"type":"SCALAR"
		}
	],
	"bufferViews":[
		{
			"buffer":0,
			"byteLength":5568,
			"byteOffset":0,
			"target":34962
		},
		{
			"buffer":0,
			"byteLength":5568,
			"byteOffset":5568,
			"target":34962
		},
		{
			"buffer":0,
			"byteLength":3712,
			"byteOffset":11136,
			"target":34962
		},
		{
			"buffer":0,
			"byteLength":2640,
			"byteOffset":14848,
			"target":34963
		},
		{
			"buffer":0,
			"byteLength":14976,
			"byteOffset":17488,
			"target":34962
		},
		{
			"buffer":0,
			"byteLength":14976,
			"byteOffset":32464,
			"target":34962
		},
		{
			"buffer":0,
			"byteLength":9984,
			"byteOffset":47440,
			"target":34962
		},
		{
			"buffer":0,
			"byteLength":5760,
			"byteOffset":57424,
			"target":34963
		},
		{
			"buffer":0,
			"byteLength":14976,
			"byteOffset":63184,
			"target":34962
		},
		{
			"buffer":0,
			"byteLength":14976,
			"byteOffset":78160,
			"target":34962
		},
		{
			"buffer":0,
			"byteLength":9984,
			"byteOffset":93136,
			"target":34962
		},
		{
			"buffer":0,
			"byteLength":5760,
			"byteOffset":103120,
			"target":34963
		},
		{
			"buffer":0,
			"byteLength":9120,
			"byteOffset":108880,
			"target":34962
		},
		{
			"buffer":0,
			"byteLength":9120,
			"byteOffset":118000,
			"target":34962
		},
		{
			"buffer":0,
			"byteLength":6080,
			"byteOffset":127120,
			"target":34962
		},
		{
			"buffer":0,
			"byteLength":4176,
			"byteOffset":133200,
			"target":34963
		},
		{
			"buffer":0,
			"byteLength":5976,
			"byteOffset":137376,
			"target":34962
		},
		{
			"buffer":0,
			"byteLength":5976,
			"byteOffset":143352,
			"target":34962
		},
		{
			"buffer":0,
			"byteLength":3984,
			"byteOffset":149328,
			"target":34962
		},
		{
			"buffer":0,
			"byteLength":1464,
			"byteOffset":153312,
			"target":34963
		},
		{
			"buffer":0,
			"byteLength":48,
			"byteOffset":154776,
			"target":34962
		},
		{
			"buffer":0,
			"byteLength":48,
			"byteOffset":154824,
			"target":34962
		},
		{
			"buffer":0,
			"byteLength":32,
			"byteOffset":154872,
			"target":34962
		},
		{
			"buffer":0,
			"byteLength":12,
			"byteOffset":154904,
			"target":34963
		}
	],
	"samplers":[
		{
			"magFilter":9729,
			"minFilter":9987
		}
	],
	"buffers":[
		{
			"byteLength":154916,
			"uri":"scene.bin"
		}
	]
}
