{
	"asset":{
		"generator":"Khronos glTF Blender I/O v4.1.63",
		"version":"2.0"
	},
	"scene":0,
	"scenes":[
		{
			"name":"Scene",
			"nodes":[
				4
			]
		}
	],
	"nodes":[
		{
			"mesh":0,
			"name":"Object_2"
		},
		{
			"mesh":1,
			"name":"Object_3"
		},
		{
			"mesh":2,
			"name":"Object_5"
		},
		{
			"children":[
				0,
				1,
				2
			],
			"name":"billboards_ID.obj.cleaner.materialmerger.gles"
		},
		{
			"children":[
				3
			],
			"name":"Sketchfab_model",
			"rotation":[
				-0.70710688829422,
				0,
				0,
				0.7071066498756409
			],
			"scale":[
				0.20000000298023224,
				0.20000003278255463,
				0.20000003278255463
			]
		}
	],
	"materials":[
		{
			"doubleSided":true,
			"name":"lambert2SG",
			"normalTexture":{
				"index":0
			},
			"pbrMetallicRoughness":{
				"baseColorTexture":{
					"index":1
				},
				"metallicRoughnessTexture":{
					"index":2
				}
			}
		},
		{
			"doubleSided":true,
			"name":"lambert3SG",
			"normalTexture":{
				"index":3
			},
			"pbrMetallicRoughness":{
				"baseColorTexture":{
					"index":4
				},
				"metallicRoughnessTexture":{
					"index":5
				}
			}
		},
		{
			"doubleSided":true,
			"emissiveFactor":[
				1,
				1,
				1
			],
			"emissiveTexture":{
				"index":6
			},
			"name":"Billboardslambert36SG",
			"normalTexture":{
				"index":7
			},
			"occlusionTexture":{
				"index":8
			},
			"pbrMetallicRoughness":{
				"baseColorTexture":{
					"index":9
				},
				"metallicRoughnessTexture":{
					"index":8
				}
			}
		}
	],
	"meshes":[
		{
			"name":"Object_0",
			"primitives":[
				{
					"attributes":{
						"POSITION":0,
						"NORMAL":1,
						"TEXCOORD_0":2
					},
					"indices":3,
					"material":0
				}
			]
		},
		{
			"name":"Object_1",
			"primitives":[
				{
					"attributes":{
						"POSITION":4,
						"NORMAL":5,
						"TEXCOORD_0":6
					},
					"indices":3,
					"material":1
				}
			]
		},
		{
			"name":"Object_3",
			"primitives":[
				{
					"attributes":{
						"POSITION":7,
						"NORMAL":8,
						"TEXCOORD_0":9
					},
					"indices":10,
					"material":2
				}
			]
		}
	],
	"textures":[
		{
			"sampler":0,
			"source":0
		},
		{
			"sampler":0,
			"source":1
		},
		{
			"sampler":0,
			"source":2
		},
		{
			"sampler":0,
			"source":3
		},
		{
			"sampler":0,
			"source":4
		},
		{
			"sampler":0,
			"source":5
		},
		{
			"sampler":0,
			"source":6
		},
		{
			"sampler":0,
			"source":7
		},
		{
			"sampler":0,
			"source":8
		},
		{
			"sampler":0,
			"source":9
		}
	],
	"images":[
		{
			"mimeType":"image/png",
			"name":"lambert2SG_normal",
			"uri":"lambert2SG_normal.png"
		},
		{
			"mimeType":"image/png",
			"name":"lambert2SG_baseColor",
			"uri":"lambert2SG_baseColor.png"
		},
		{
			"mimeType":"image/png",
			"name":"lambert2SG_metallicRoughness",
			"uri":"lambert2SG_metallicRoughness.png"
		},
		{
			"mimeType":"image/png",
			"name":"lambert3SG_normal",
			"uri":"lambert3SG_normal.png"
		},
		{
			"mimeType":"image/png",
			"name":"lambert3SG_baseColor",
			"uri":"lambert3SG_baseColor.png"
		},
		{
			"mimeType":"image/png",
			"name":"lambert3SG_metallicRoughness",
			"uri":"lambert3SG_metallicRoughness.png"
		},
		{
			"mimeType":"image/png",
			"name":"Billboardslambert36SG_emissive",
			"uri":"Billboardslambert36SG_emissive.png"
		},
		{
			"mimeType":"image/png",
			"name":"Billboardslambert36SG_normal",
			"uri":"Billboardslambert36SG_normal.png"
		},
		{
			"mimeType":"image/png",
			"name":"Billboardslambert36SG_metallicRoughness",
			"uri":"Billboardslambert36SG_metallicRoughness.png"
		},
		{
			"mimeType":"image/png",
			"name":"Billboardslambert36SG_baseColor",
			"uri":"Billboardslambert36SG_baseColor.png"
		}
	],
	"accessors":[
		{
			"bufferView":0,
			"componentType":5126,
			"count":8,
			"max":[
				537.88916015625,
				160.77725219726562,
				691.2422485351562
			],
			"min":[
				181.80679321289062,
				-363.390380859375,
				358.2007141113281
			],
			"type":"VEC3"
		},
		{
			"bufferView":1,
			"componentType":5126,
			"count":8,
			"type":"VEC3"
		},
		{
			"bufferView":2,
			"componentType":5126,
			"count":8,
			"type":"VEC2"
		},
		{
			"bufferView":3,
			"componentType":5123,
			"count":12,
			"type":"SCALAR"
		},
		{
			"bufferView":4,
			"componentType":5126,
			"count":8,
			"max":[
				-202.11080932617188,
				387.76422119140625,
				691.2422485351562
			],
			"min":[
				-558.1931762695312,
				-136.40342712402344,
				358.2007141113281
			],
			"type":"VEC3"
		},
		{
			"bufferView":5,
			"componentType":5126,
			"count":8,
			"type":"VEC3"
		},
		{
			"bufferView":6,
			"componentType":5126,
			"count":8,
			"type":"VEC2"
		},
		{
			"bufferView":7,
			"componentType":5126,
			"count":2220,
			"max":[
				623.7472534179688,
				458.87835693359375,
				691.2422485351562
			],
			"min":[
				-643.7470092773438,
				-434.309326171875,
				6.103984832763672
			],
			"type":"VEC3"
		},
		{
			"bufferView":8,
			"componentType":5126,
			"count":2220,
			"type":"VEC3"
		},
		{
			"bufferView":9,
			"componentType":5126,
			"count":2220,
			"type":"VEC2"
		},
		{
			"bufferView":10,
			"componentType":5123,
			"count":3783,
			"type":"SCALAR"
		}
	],
	"bufferViews":[
		{
			"buffer":0,
			"byteLength":96,
			"byteOffset":0,
			"target":34962
		},
		{
			"buffer":0,
			"byteLength":96,
			"byteOffset":96,
			"target":34962
		},
		{
			"buffer":0,
			"byteLength":64,
			"byteOffset":192,
			"target":34962
		},
		{
			"buffer":0,
			"byteLength":24,
			"byteOffset":256,
			"target":34963
		},
		{
			"buffer":0,
			"byteLength":96,
			"byteOffset":280,
			"target":34962
		},
		{
			"buffer":0,
			"byteLength":96,
			"byteOffset":376,
			"target":34962
		},
		{
			"buffer":0,
			"byteLength":64,
			"byteOffset":472,
			"target":34962
		},
		{
			"buffer":0,
			"byteLength":26640,
			"byteOffset":536,
			"target":34962
		},
		{
			"buffer":0,
			"byteLength":26640,
			"byteOffset":27176,
			"target":34962
		},
		{
			"buffer":0,
			"byteLength":17760,
			"byteOffset":53816,
			"target":34962
		},
		{
			"buffer":0,
			"byteLength":7566,
			"byteOffset":71576,
			"target":34963
		}
	],
	"samplers":[
		{
			"magFilter":9729,
			"minFilter":9987
		}
	],
	"buffers":[
		{
			"byteLength":79144,
			"uri":"scene.bin"
		}
	]
}
