{
	"asset":{
		"generator":"Khronos glTF Blender I/O v4.1.63",
		"version":"2.0"
	},
	"scene":0,
	"scenes":[
		{
			"name":"Scene",
			"nodes":[
				28
			]
		}
	],
	"nodes":[
		{
			"mesh":0,
			"name":"base_low_uv_0"
		},
		{
			"children":[
				0
			],
			"name":"base_low"
		},
		{
			"mesh":1,
			"name":"fence2_low_uv_0"
		},
		{
			"children":[
				2
			],
			"name":"fence2_low",
			"rotation":[
				0,
				0.7071066498756409,
				0,
				0.70710688829422
			],
			"translation":[
				5.399569988250732,
				11.399871826171875,
				-1.486772894859314
			]
		},
		{
			"mesh":2,
			"name":"fence_low_uv_0"
		},
		{
			"children":[
				4
			],
			"name":"fence_low",
			"translation":[
				5.399569988250732,
				11.399871826171875,
				-1.486772894859314
			]
		},
		{
			"mesh":3,
			"name":"light_low_uv_0"
		},
		{
			"children":[
				6
			],
			"name":"light_low",
			"rotation":[
				-0.23059745132923126,
				0,
				0,
				0.9730493426322937
			],
			"translation":[
				-3.452530860900879,
				15.751653671264648,
				-2.584561347961426
			]
		},
		{
			"mesh":4,
			"name":"light_support_low_uv_0"
		},
		{
			"children":[
				8
			],
			"name":"light_support_low",
			"translation":[
				-3.452531099319458,
				15.464774131774902,
				-0.3174233138561249
			]
		},
		{
			"mesh":5,
			"name":"pillar_low_uv_0"
		},
		{
			"children":[
				10
			],
			"name":"pillar_low",
			"translation":[
				0,
				5.533596038818359,
				0
			]
		},
		{
			"mesh":6,
			"name":"shield_low_uv_0"
		},
		{
			"children":[
				12
			],
			"name":"shield_low",
			"rotation":[
				0.70710688829422,
				0,
				0,
				0.7071066498756409
			],
			"translation":[
				0,
				13.241576194763184,
				0.43546193838119507
			]
		},
		{
			"mesh":7,
			"name":"stairs2_low_uv_0"
		},
		{
			"children":[
				14
			],
			"name":"stairs2_low",
			"rotation":[
				0,
				0,
				-0.7071068286895752,
				0.7071067094802856
			],
			"translation":[
				-0.024257779121398926,
				11.126953125,
				-0.9451605081558228
			]
		},
		{
			"mesh":8,
			"name":"stairs_low_uv_0"
		},
		{
			"children":[
				16
			],
			"name":"stairs_low",
			"translation":[
				0.30196505784988403,
				9.463001251220703,
				-0.942471444606781
			]
		},
		{
			"mesh":9,
			"name":"stand2_low_uv_0"
		},
		{
			"children":[
				18
			],
			"name":"stand2_low",
			"translation":[
				5.399569988250732,
				11.282548904418945,
				-0.003142714500427246
			]
		},
		{
			"mesh":10,
			"name":"stand_low_uv_0"
		},
		{
			"children":[
				20
			],
			"name":"stand_low",
			"translation":[
				5.399569988250732,
				11.282548904418945,
				-1.486772894859314
			]
		},
		{
			"mesh":11,
			"name":"support2_low_uv_0"
		},
		{
			"children":[
				22
			],
			"name":"support2_low",
			"rotation":[
				0.70710688829422,
				0,
				0,
				0.7071066498756409
			],
			"translation":[
				-4.549159526824951,
				14.958170890808105,
				0.01531323790550232
			]
		},
		{
			"mesh":12,
			"name":"support_low__0"
		},
		{
			"children":[
				24
			],
			"name":"support_low",
			"rotation":[
				0,
				0.7071066498756409,
				0,
				0.70710688829422
			],
			"translation":[
				0,
				0.3035261631011963,
				0.44180989265441895
			]
		},
		{
			"children":[
				1,
				3,
				5,
				7,
				9,
				11,
				13,
				15,
				17,
				19,
				21,
				23,
				25
			],
			"name":"RootNode"
		},
		{
			"children":[
				26
			],
			"name":"c4f980352f1d45beaf31304545c8a66f.fbx",
			"rotation":[
				0.70710688829422,
				0,
				0,
				0.7071066498756409
			]
		},
		{
			"children":[
				27
			],
			"name":"Sketchfab_model",
			"rotation":[
				-0.70710688829422,
				0,
				0,
				0.7071066498756409
			]
		}
	],
	"materials":[
		{
			"doubleSided":true,
			"name":"material",
			"normalTexture":{
				"index":0
			},
			"pbrMetallicRoughness":{
				"baseColorTexture":{
					"index":1
				},
				"metallicRoughnessTexture":{
					"index":2
				}
			}
		},
		{
			"doubleSided":true,
			"name":"support_low__0",
			"pbrMetallicRoughness":{
				"baseColorTexture":{
					"index":3
				},
				"metallicFactor":0,
				"roughnessFactor":0.6000000238418579
			}
		}
	],
	"meshes":[
		{
			"name":"base_low_uv_0",
			"primitives":[
				{
					"attributes":{
						"POSITION":0,
						"NORMAL":1,
						"TEXCOORD_0":2
					},
					"indices":3,
					"material":0
				}
			]
		},
		{
			"name":"fence2_low_uv_0",
			"primitives":[
				{
					"attributes":{
						"POSITION":4,
						"NORMAL":5,
						"TEXCOORD_0":6
					},
					"indices":7,
					"material":0
				}
			]
		},
		{
			"name":"fence_low_uv_0",
			"primitives":[
				{
					"attributes":{
						"POSITION":8,
						"NORMAL":9,
						"TEXCOORD_0":10
					},
					"indices":11,
					"material":0
				}
			]
		},
		{
			"name":"light_low_uv_0",
			"primitives":[
				{
					"attributes":{
						"POSITION":12,
						"NORMAL":13,
						"TEXCOORD_0":14
					},
					"indices":15,
					"material":0
				}
			]
		},
		{
			"name":"light_support_low_uv_0",
			"primitives":[
				{
					"attributes":{
						"POSITION":16,
						"NORMAL":17,
						"TEXCOORD_0":18
					},
					"indices":19,
					"material":0
				}
			]
		},
		{
			"name":"pillar_low_uv_0",
			"primitives":[
				{
					"attributes":{
						"POSITION":20,
						"NORMAL":21,
						"TEXCOORD_0":22
					},
					"indices":23,
					"material":0
				}
			]
		},
		{
			"name":"shield_low_uv_0",
			"primitives":[
				{
					"attributes":{
						"POSITION":24,
						"NORMAL":25,
						"TEXCOORD_0":26
					},
					"indices":27,
					"material":0
				}
			]
		},
		{
			"name":"stairs2_low_uv_0",
			"primitives":[
				{
					"attributes":{
						"POSITION":28,
						"NORMAL":29,
						"TEXCOORD_0":30
					},
					"indices":31,
					"material":0
				}
			]
		},
		{
			"name":"stairs_low_uv_0",
			"primitives":[
				{
					"attributes":{
						"POSITION":32,
						"NORMAL":33,
						"TEXCOORD_0":34
					},
					"indices":35,
					"material":0
				}
			]
		},
		{
			"name":"stand2_low_uv_0",
			"primitives":[
				{
					"attributes":{
						"POSITION":36,
						"NORMAL":37,
						"TEXCOORD_0":38
					},
					"indices":27,
					"material":0
				}
			]
		},
		{
			"name":"stand_low_uv_0",
			"primitives":[
				{
					"attributes":{
						"POSITION":39,
						"NORMAL":40,
						"TEXCOORD_0":41
					},
					"indices":42,
					"material":0
				}
			]
		},
		{
			"name":"support2_low_uv_0",
			"primitives":[
				{
					"attributes":{
						"POSITION":43,
						"NORMAL":44,
						"TEXCOORD_0":45
					},
					"indices":46,
					"material":0
				}
			]
		},
		{
			"name":"support_low__0",
			"primitives":[
				{
					"attributes":{
						"POSITION":47,
						"NORMAL":48,
						"TEXCOORD_0":49
					},
					"indices":50,
					"material":1
				}
			]
		}
	],
	"textures":[
		{
			"sampler":0,
			"source":0
		},
		{
			"sampler":0,
			"source":1
		},
		{
			"sampler":0,
			"source":2
		},
		{
			"sampler":0,
			"source":1
		}
	],
	"images":[
		{
			"mimeType":"image/png",
			"name":"material_normal",
			"uri":"material_normal.png"
		},
		{
			"mimeType":"image/png",
			"name":"support_low__0_baseColor",
			"uri":"support_low__0_baseColor.png"
		},
		{
			"mimeType":"image/png",
			"name":"material_metallicRoughness",
			"uri":"material_metallicRoughness.png"
		}
	],
	"accessors":[
		{
			"bufferView":0,
			"componentType":5126,
			"count":108,
			"max":[
				5.641914367675781,
				11.437606811523438,
				1.7429888248443604
			],
			"min":[
				-5.641914367675781,
				-0.09714317321777344,
				-1.7429890632629395
			],
			"type":"VEC3"
		},
		{
			"bufferView":1,
			"componentType":5126,
			"count":108,
			"type":"VEC3"
		},
		{
			"bufferView":2,
			"componentType":5126,
			"count":108,
			"type":"VEC2"
		},
		{
			"bufferView":3,
			"componentType":5123,
			"count":198,
			"type":"SCALAR"
		},
		{
			"bufferView":4,
			"componentType":5126,
			"count":64,
			"max":[
				-0.02139383740723133,
				0.500758945941925,
				0.05181211233139038
			],
			"min":[
				-2.9402384757995605,
				-0.05181211233139038,
				-10.8509521484375
			],
			"type":"VEC3"
		},
		{
			"bufferView":5,
			"componentType":5126,
			"count":64,
			"type":"VEC3"
		},
		{
			"bufferView":6,
			"componentType":5126,
			"count":64,
			"type":"VEC2"
		},
		{
			"bufferView":7,
			"componentType":5123,
			"count":96,
			"type":"SCALAR"
		},
		{
			"bufferView":8,
			"componentType":5126,
			"count":128,
			"max":[
				-0.02139431983232498,
				0.500758945941925,
				3.025357961654663
			],
			"min":[
				-10.777745246887207,
				-0.05181211233139038,
				-0.05181211233139038
			],
			"type":"VEC3"
		},
		{
			"bufferView":9,
			"componentType":5126,
			"count":128,
			"type":"VEC3"
		},
		{
			"bufferView":10,
			"componentType":5126,
			"count":128,
			"type":"VEC2"
		},
		{
			"bufferView":11,
			"componentType":5123,
			"count":192,
			"type":"SCALAR"
		},
		{
			"bufferView":12,
			"componentType":5126,
			"count":336,
			"max":[
				6.866387367248535,
				0.09716526418924332,
				4.797239303588867
			],
			"min":[
				-0.16730962693691254,
				-2.5277559757232666,
				-0.16730965673923492
			],
			"type":"VEC3"
		},
		{
			"bufferView":13,
			"componentType":5126,
			"count":336,
			"type":"VEC3"
		},
		{
			"bufferView":14,
			"componentType":5126,
			"count":336,
			"type":"VEC2"
		},
		{
			"bufferView":15,
			"componentType":5123,
			"count":504,
			"type":"SCALAR"
		},
		{
			"bufferView":16,
			"componentType":5126,
			"count":1014,
			"max":[
				6.774055480957031,
				0.5215980410575867,
				2.9306702613830566
			],
			"min":[
				-0.06326163560152054,
				-0.30752378702163696,
				-2.295823574066162
			],
			"type":"VEC3"
		},
		{
			"bufferView":17,
			"componentType":5126,
			"count":1014,
			"type":"VEC3"
		},
		{
			"bufferView":18,
			"componentType":5126,
			"count":1014,
			"type":"VEC2"
		},
		{
			"bufferView":19,
			"componentType":5123,
			"count":4860,
			"type":"SCALAR"
		},
		{
			"bufferView":20,
			"componentType":5126,
			"count":198,
			"max":[
				0.4093066155910492,
				5.469107627868652,
				0.40930673480033875
			],
			"min":[
				-0.40930667519569397,
				-5.523993492126465,
				-0.4093065559864044
			],
			"type":"VEC3"
		},
		{
			"bufferView":21,
			"componentType":5126,
			"count":198,
			"type":"VEC3"
		},
		{
			"bufferView":22,
			"componentType":5126,
			"count":198,
			"type":"VEC2"
		},
		{
			"bufferView":23,
			"componentType":5123,
			"count":576,
			"type":"SCALAR"
		},
		{
			"bufferView":24,
			"componentType":5126,
			"count":40,
			"max":[
				4.797710418701172,
				0.07238828390836716,
				1.8521381616592407
			],
			"min":[
				-4.797710418701172,
				-0.9433123469352722,
				-2.1397008895874023
			],
			"type":"VEC3"
		},
		{
			"bufferView":25,
			"componentType":5126,
			"count":40,
			"type":"VEC3"
		},
		{
			"bufferView":26,
			"componentType":5126,
			"count":40,
			"type":"VEC2"
		},
		{
			"bufferView":27,
			"componentType":5123,
			"count":60,
			"type":"SCALAR"
		},
		{
			"bufferView":28,
			"componentType":5126,
			"count":544,
			"max":[
				5.2630839347839355,
				0.3496021628379822,
				0.02994386851787567
			],
			"min":[
				-0.02605546824634075,
				-0.28405189514160156,
				-0.02605544775724411
			],
			"type":"VEC3"
		},
		{
			"bufferView":29,
			"componentType":5126,
			"count":544,
			"type":"VEC3"
		},
		{
			"bufferView":30,
			"componentType":5126,
			"count":544,
			"type":"VEC2"
		},
		{
			"bufferView":31,
			"componentType":5123,
			"count":1536,
			"type":"SCALAR"
		},
		{
			"bufferView":32,
			"componentType":5126,
			"count":136,
			"max":[
				0.043626923114061356,
				2.3220205307006836,
				0.043627042323350906
			],
			"min":[
				-0.6475570201873779,
				-4.376074314117432,
				-0.04362686723470688
			],
			"type":"VEC3"
		},
		{
			"bufferView":33,
			"componentType":5126,
			"count":136,
			"type":"VEC3"
		},
		{
			"bufferView":34,
			"componentType":5126,
			"count":136,
			"type":"VEC2"
		},
		{
			"bufferView":35,
			"componentType":5123,
			"count":384,
			"type":"SCALAR"
		},
		{
			"bufferView":36,
			"componentType":5126,
			"count":40,
			"max":[
				0.0587037056684494,
				0.8710356950759888,
				0.0587037056684494
			],
			"min":[
				-0.0587037056684494,
				-0.18067319691181183,
				-0.0587037056684494
			],
			"type":"VEC3"
		},
		{
			"bufferView":37,
			"componentType":5126,
			"count":40,
			"type":"VEC3"
		},
		{
			"bufferView":38,
			"componentType":5126,
			"count":40,
			"type":"VEC2"
		},
		{
			"bufferView":39,
			"componentType":5126,
			"count":160,
			"max":[
				0.0587037056684494,
				0.8710356950759888,
				3.0322494506835938
			],
			"min":[
				-10.857843399047852,
				-0.2323438823223114,
				-0.0587037056684494
			],
			"type":"VEC3"
		},
		{
			"bufferView":40,
			"componentType":5126,
			"count":160,
			"type":"VEC3"
		},
		{
			"bufferView":41,
			"componentType":5126,
			"count":160,
			"type":"VEC2"
		},
		{
			"bufferView":42,
			"componentType":5123,
			"count":240,
			"type":"SCALAR"
		},
		{
			"bufferView":43,
			"componentType":5126,
			"count":408,
			"max":[
				9.148381233215332,
				0.47515591979026794,
				3.020467519760132
			],
			"min":[
				-0.05006224289536476,
				-0.4662627875804901,
				-0.031977273523807526
			],
			"type":"VEC3"
		},
		{
			"bufferView":44,
			"componentType":5126,
			"count":408,
			"type":"VEC3"
		},
		{
			"bufferView":45,
			"componentType":5126,
			"count":408,
			"type":"VEC2"
		},
		{
			"bufferView":46,
			"componentType":5123,
			"count":1152,
			"type":"SCALAR"
		},
		{
			"bufferView":47,
			"componentType":5126,
			"count":96,
			"max":[
				1.1809725761413574,
				0.45117923617362976,
				0.7391626238822937
			],
			"min":[
				-0.2973526418209076,
				-0.2191552221775055,
				-0.7391625642776489
			],
			"type":"VEC3"
		},
		{
			"bufferView":48,
			"componentType":5126,
			"count":96,
			"type":"VEC3"
		},
		{
			"bufferView":49,
			"componentType":5126,
			"count":96,
			"type":"VEC2"
		},
		{
			"bufferView":50,
			"componentType":5123,
			"count":168,
			"type":"SCALAR"
		}
	],
	"bufferViews":[
		{
			"buffer":0,
			"byteLength":1296,
			"byteOffset":0,
			"target":34962
		},
		{
			"buffer":0,
			"byteLength":1296,
			"byteOffset":1296,
			"target":34962
		},
		{
			"buffer":0,
			"byteLength":864,
			"byteOffset":2592,
			"target":34962
		},
		{
			"buffer":0,
			"byteLength":396,
			"byteOffset":3456,
			"target":34963
		},
		{
			"buffer":0,
			"byteLength":768,
			"byteOffset":3852,
			"target":34962
		},
		{
			"buffer":0,
			"byteLength":768,
			"byteOffset":4620,
			"target":34962
		},
		{
			"buffer":0,
			"byteLength":512,
			"byteOffset":5388,
			"target":34962
		},
		{
			"buffer":0,
			"byteLength":192,
			"byteOffset":5900,
			"target":34963
		},
		{
			"buffer":0,
			"byteLength":1536,
			"byteOffset":6092,
			"target":34962
		},
		{
			"buffer":0,
			"byteLength":1536,
			"byteOffset":7628,
			"target":34962
		},
		{
			"buffer":0,
			"byteLength":1024,
			"byteOffset":9164,
			"target":34962
		},
		{
			"buffer":0,
			"byteLength":384,
			"byteOffset":10188,
			"target":34963
		},
		{
			"buffer":0,
			"byteLength":4032,
			"byteOffset":10572,
			"target":34962
		},
		{
			"buffer":0,
			"byteLength":4032,
			"byteOffset":14604,
			"target":34962
		},
		{
			"buffer":0,
			"byteLength":2688,
			"byteOffset":18636,
			"target":34962
		},
		{
			"buffer":0,
			"byteLength":1008,
			"byteOffset":21324,
			"target":34963
		},
		{
			"buffer":0,
			"byteLength":12168,
			"byteOffset":22332,
			"target":34962
		},
		{
			"buffer":0,
			"byteLength":12168,
			"byteOffset":34500,
			"target":34962
		},
		{
			"buffer":0,
			"byteLength":8112,
			"byteOffset":46668,
			"target":34962
		},
		{
			"buffer":0,
			"byteLength":9720,
			"byteOffset":54780,
			"target":34963
		},
		{
			"buffer":0,
			"byteLength":2376,
			"byteOffset":64500,
			"target":34962
		},
		{
			"buffer":0,
			"byteLength":2376,
			"byteOffset":66876,
			"target":34962
		},
		{
			"buffer":0,
			"byteLength":1584,
			"byteOffset":69252,
			"target":34962
		},
		{
			"buffer":0,
			"byteLength":1152,
			"byteOffset":70836,
			"target":34963
		},
		{
			"buffer":0,
			"byteLength":480,
			"byteOffset":71988,
			"target":34962
		},
		{
			"buffer":0,
			"byteLength":480,
			"byteOffset":72468,
			"target":34962
		},
		{
			"buffer":0,
			"byteLength":320,
			"byteOffset":72948,
			"target":34962
		},
		{
			"buffer":0,
			"byteLength":120,
			"byteOffset":73268,
			"target":34963
		},
		{
			"buffer":0,
			"byteLength":6528,
			"byteOffset":73388,
			"target":34962
		},
		{
			"buffer":0,
			"byteLength":6528,
			"byteOffset":79916,
			"target":34962
		},
		{
			"buffer":0,
			"byteLength":4352,
			"byteOffset":86444,
			"target":34962
		},
		{
			"buffer":0,
			"byteLength":3072,
			"byteOffset":90796,
			"target":34963
		},
		{
			"buffer":0,
			"byteLength":1632,
			"byteOffset":93868,
			"target":34962
		},
		{
			"buffer":0,
			"byteLength":1632,
			"byteOffset":95500,
			"target":34962
		},
		{
			"buffer":0,
			"byteLength":1088,
			"byteOffset":97132,
			"target":34962
		},
		{
			"buffer":0,
			"byteLength":768,
			"byteOffset":98220,
			"target":34963
		},
		{
			"buffer":0,
			"byteLength":480,
			"byteOffset":98988,
			"target":34962
		},
		{
			"buffer":0,
			"byteLength":480,
			"byteOffset":99468,
			"target":34962
		},
		{
			"buffer":0,
			"byteLength":320,
			"byteOffset":99948,
			"target":34962
		},
		{
			"buffer":0,
			"byteLength":1920,
			"byteOffset":100268,
			"target":34962
		},
		{
			"buffer":0,
			"byteLength":1920,
			"byteOffset":102188,
			"target":34962
		},
		{
			"buffer":0,
			"byteLength":1280,
			"byteOffset":104108,
			"target":34962
		},
		{
			"buffer":0,
			"byteLength":480,
			"byteOffset":105388,
			"target":34963
		},
		{
			"buffer":0,
			"byteLength":4896,
			"byteOffset":105868,
			"target":34962
		},
		{
			"buffer":0,
			"byteLength":4896,
			"byteOffset":110764,
			"target":34962
		},
		{
			"buffer":0,
			"byteLength":3264,
			"byteOffset":115660,
			"target":34962
		},
		{
			"buffer":0,
			"byteLength":2304,
			"byteOffset":118924,
			"target":34963
		},
		{
			"buffer":0,
			"byteLength":1152,
			"byteOffset":121228,
			"target":34962
		},
		{
			"buffer":0,
			"byteLength":1152,
			"byteOffset":122380,
			"target":34962
		},
		{
			"buffer":0,
			"byteLength":768,
			"byteOffset":123532,
			"target":34962
		},
		{
			"buffer":0,
			"byteLength":336,
			"byteOffset":124300,
			"target":34963
		}
	],
	"samplers":[
		{
			"magFilter":9729,
			"minFilter":9987
		}
	],
	"buffers":[
		{
			"byteLength":124636,
			"uri":"scene.bin"
		}
	]
}
