{
	"asset":{
		"generator":"Khronos glTF Blender I/O v4.1.63",
		"version":"2.0"
	},
	"extensionsUsed":[
		"KHR_materials_specular"
	],
	"scene":0,
	"scenes":[
		{
			"name":"Scene",
			"nodes":[
				0,
				1,
				8,
				17,
				18
			]
		}
	],
	"nodes":[
		{
			"name":"Frame",
			"scale":[
				100,
				100,
				100
			],
			"translation":[
				0,
				50.40495300292969,
				0
			]
		},
		{
			"name":"Picture",
			"scale":[
				100,
				100,
				100
			],
			"translation":[
				0,
				50.40495300292969,
				0
			]
		},
		{
			"mesh":0,
			"name":"red_button",
			"scale":[
				1.499888300895691,
				1,
				1.500106930732727
			],
			"translation":[
				108.07843017578125,
				-64.6143798828125,
				175.57644653320312
			]
		},
		{
			"children":[
				2
			],
			"name":"Button_Cyrcle_1_Button",
			"translation":[
				-100,
				-3.337860107421875e-06,
				0.0001033395528793335
			]
		},
		{
			"mesh":1,
			"name":"Button_Cyrcle_1_Frame_Button_Cyrcle_1_0",
			"scale":[
				1.499888300895691,
				1,
				1.500106930732727
			],
			"translation":[
				108.07843017578125,
				-64.6143798828125,
				175.57644653320312
			]
		},
		{
			"children":[
				4
			],
			"name":"Button_Cyrcle_1_Frame",
			"translation":[
				-100,
				-3.337860107421875e-06,
				0.0001033395528793335
			]
		},
		{
			"children":[
				3,
				5
			],
			"name":"RootNode.001",
			"translation":[
				0,
				-3.3974647521972656e-06,
				4.2304396629333496e-05
			]
		},
		{
			"children":[
				6
			],
			"name":"Buttons_Cyrcle_1.fbx",
			"rotation":[
				0.70710688829422,
				0,
				0,
				0.7071066498756409
			],
			"scale":[
				0.009999999776482582,
				0.009999996982514858,
				0.009999996982514858
			]
		},
		{
			"children":[
				7
			],
			"name":"Sketchfab_model.001",
			"rotation":[
				0.0008484418503940105,
				0,
				0,
				1
			],
			"scale":[
				2.462322235107422,
				2.554720878601074,
				5.138602256774902
			],
			"translation":[
				0.45765018463134766,
				-23.841136932373047,
				2.4360880851745605
			]
		},
		{
			"mesh":2,
			"name":"Object_4",
			"translation":[
				-0.018979670479893684,
				0,
				0
			]
		},
		{
			"children":[
				9
			],
			"name":"Bild_0",
			"translation":[
				0.014309855177998543,
				0.0040476033464074135,
				0.010281924158334732
			]
		},
		{
			"mesh":3,
			"name":"Object_6",
			"translation":[
				-0.018979670479893684,
				0,
				0
			]
		},
		{
			"children":[
				11
			],
			"name":"Frame_1",
			"translation":[
				0,
				-0.10389246791601181,
				0
			]
		},
		{
			"mesh":4,
			"name":"Object_8",
			"translation":[
				-0.018979670479893684,
				0,
				0
			]
		},
		{
			"children":[
				13
			],
			"name":"Glas_2",
			"translation":[
				0,
				-0.10389246791601181,
				0
			]
		},
		{
			"children":[
				10,
				12,
				14
			],
			"name":"GLTF_SceneRootNode",
			"rotation":[
				0.70710688829422,
				0,
				0,
				0.7071066498756409
			]
		},
		{
			"children":[
				15
			],
			"name":"root"
		},
		{
			"children":[
				16
			],
			"name":"Sketchfab_model",
			"scale":[
				100,
				100,
				100
			],
			"translation":[
				0.45765018463134766,
				1.1056816577911377,
				0
			]
		},
		{
			"mesh":5,
			"name":"Plane",
			"rotation":[
				0.70710688829422,
				0,
				0,
				0.7071066498756409
			],
			"scale":[
				0.6499999761581421,
				1,
				0.6499999761581421
			],
			"translation":[
				0,
				0.9299705028533936,
				0
			]
		}
	],
	"materials":[
		{
			"doubleSided":true,
			"extensions":{
				"KHR_materials_specular":{
					"specularFactor":0
				}
			},
			"name":"Button_Cyrcle_1.006",
			"normalTexture":{
				"index":0
			},
			"occlusionTexture":{
				"index":1
			},
			"pbrMetallicRoughness":{
				"baseColorTexture":{
					"index":2
				},
				"metallicFactor":0.5,
				"metallicRoughnessTexture":{
					"index":1
				},
				"roughnessFactor":0
			}
		},
		{
			"doubleSided":true,
			"extensions":{
				"KHR_materials_specular":{
					"specularFactor":0.26917773485183716
				}
			},
			"name":"material_0.002",
			"pbrMetallicRoughness":{
				"baseColorTexture":{
					"index":3
				},
				"metallicFactor":0,
				"roughnessFactor":0.8988332748413086
			}
		},
		{
			"doubleSided":true,
			"extensions":{
				"KHR_materials_specular":{
					"specularFactor":0.34473639726638794
				}
			},
			"name":"Frame-Material.003",
			"normalTexture":{
				"index":4
			},
			"pbrMetallicRoughness":{
				"baseColorTexture":{
					"index":5
				},
				"metallicFactor":0,
				"metallicRoughnessTexture":{
					"index":6
				}
			}
		},
		{
			"alphaMode":"BLEND",
			"doubleSided":true,
			"extensions":{
				"KHR_materials_specular":{
					"specularFactor":0.8421642780303955
				}
			},
			"name":"Glas.004",
			"pbrMetallicRoughness":{
				"baseColorFactor":[
					1,
					1,
					1,
					0.1243569627404213
				],
				"roughnessFactor":0
			}
		}
	],
	"meshes":[
		{
			"name":"Button_Cyrcle_1_Button_Button_Cyrcle_1_0.006",
			"primitives":[
				{
					"attributes":{
						"POSITION":0,
						"NORMAL":1,
						"TEXCOORD_0":2
					},
					"indices":3,
					"material":0
				}
			]
		},
		{
			"name":"Button_Cyrcle_1_Frame_Button_Cyrcle_1_0.006",
			"primitives":[
				{
					"attributes":{
						"POSITION":4,
						"NORMAL":5,
						"TEXCOORD_0":6
					},
					"indices":7,
					"material":0
				}
			]
		},
		{
			"name":"Object_0.014",
			"primitives":[
				{
					"attributes":{
						"POSITION":8,
						"NORMAL":9,
						"TEXCOORD_0":10
					},
					"indices":11,
					"material":1
				}
			]
		},
		{
			"name":"Object_1.008",
			"primitives":[
				{
					"attributes":{
						"POSITION":12,
						"NORMAL":13,
						"TEXCOORD_0":14,
						"TEXCOORD_1":15
					},
					"indices":16,
					"material":2
				}
			]
		},
		{
			"name":"Object_2.002",
			"primitives":[
				{
					"attributes":{
						"POSITION":17,
						"NORMAL":18,
						"TEXCOORD_0":19,
						"TEXCOORD_1":20
					},
					"indices":21,
					"material":3
				}
			]
		},
		{
			"name":"Plane.012",
			"primitives":[
				{
					"attributes":{
						"POSITION":22,
						"NORMAL":23,
						"TEXCOORD_0":24
					},
					"indices":25
				}
			]
		}
	],
	"textures":[
		{
			"sampler":0,
			"source":0
		},
		{
			"sampler":0,
			"source":1
		},
		{
			"sampler":0,
			"source":2
		},
		{
			"sampler":0,
			"source":3
		},
		{
			"sampler":0,
			"source":4
		},
		{
			"sampler":0,
			"source":5
		},
		{
			"sampler":0,
			"source":6
		}
	],
	"images":[
		{
			"mimeType":"image/png",
			"name":"Button_Cyrcle_1_normal",
			"uri":"Button_Cyrcle_1_normal.png"
		},
		{
			"mimeType":"image/png",
			"name":"Button_Cyrcle_1_metallicRoughness",
			"uri":"Button_Cyrcle_1_metallicRoughness.png"
		},
		{
			"mimeType":"image/png",
			"name":"Button_Cyrcle_1_baseColor",
			"uri":"Button_Cyrcle_1_baseColor.png"
		},
		{
			"mimeType":"image/png",
			"name":"material_0_baseColor",
			"uri":"material_0_baseColor.png"
		},
		{
			"mimeType":"image/png",
			"name":"Frame-Material_001_normal",
			"uri":"Frame-Material_001_normal.png"
		},
		{
			"mimeType":"image/png",
			"name":"Frame-Material_001_baseColor",
			"uri":"Frame-Material_001_baseColor.png"
		},
		{
			"mimeType":"image/png",
			"name":"Frame-Material_001_metallicRoughness",
			"uri":"Frame-Material_001_metallicRoughness.png"
		}
	],
	"accessors":[
		{
			"bufferView":0,
			"componentType":5126,
			"count":133,
			"max":[
				30.000001907348633,
				20.000015258789062,
				30.000001907348633
			],
			"min":[
				-30.000001907348633,
				-3.725290298461914e-07,
				-30.000001907348633
			],
			"type":"VEC3"
		},
		{
			"bufferView":1,
			"componentType":5126,
			"count":133,
			"type":"VEC3"
		},
		{
			"bufferView":2,
			"componentType":5126,
			"count":133,
			"type":"VEC2"
		},
		{
			"bufferView":3,
			"componentType":5123,
			"count":480,
			"type":"SCALAR"
		},
		{
			"bufferView":4,
			"componentType":5126,
			"count":340,
			"max":[
				40,
				6.500000476837158,
				40
			],
			"min":[
				-40,
				0,
				-40
			],
			"type":"VEC3"
		},
		{
			"bufferView":5,
			"componentType":5126,
			"count":340,
			"type":"VEC3"
		},
		{
			"bufferView":6,
			"componentType":5126,
			"count":340,
			"type":"VEC2"
		},
		{
			"bufferView":7,
			"componentType":5123,
			"count":1728,
			"type":"SCALAR"
		},
		{
			"bufferView":8,
			"componentType":5126,
			"count":4,
			"max":[
				0.19535061717033386,
				0,
				0.19535061717033386
			],
			"min":[
				-0.19535061717033386,
				0,
				-0.19535061717033386
			],
			"type":"VEC3"
		},
		{
			"bufferView":9,
			"componentType":5126,
			"count":4,
			"type":"VEC3"
		},
		{
			"bufferView":10,
			"componentType":5126,
			"count":4,
			"type":"VEC2"
		},
		{
			"bufferView":11,
			"componentType":5123,
			"count":6,
			"type":"SCALAR"
		},
		{
			"bufferView":12,
			"componentType":5126,
			"count":659,
			"max":[
				0.2662944793701172,
				0.1299903243780136,
				0.2622665464878082
			],
			"min":[
				-0.2376747727394104,
				0.093714140355587,
				-0.24170270562171936
			],
			"type":"VEC3"
		},
		{
			"bufferView":13,
			"componentType":5126,
			"count":659,
			"type":"VEC3"
		},
		{
			"bufferView":14,
			"componentType":5126,
			"count":659,
			"type":"VEC2"
		},
		{
			"bufferView":15,
			"componentType":5126,
			"count":659,
			"type":"VEC2"
		},
		{
			"bufferView":16,
			"componentType":5123,
			"count":1782,
			"type":"SCALAR"
		},
		{
			"bufferView":17,
			"componentType":5126,
			"count":8,
			"max":[
				0.2412014603614807,
				0.12148040533065796,
				0.23717352747917175
			],
			"min":[
				-0.21258175373077393,
				0.12148040533065796,
				-0.21660968661308289
			],
			"type":"VEC3"
		},
		{
			"bufferView":18,
			"componentType":5126,
			"count":8,
			"type":"VEC3"
		},
		{
			"bufferView":19,
			"componentType":5126,
			"count":8,
			"type":"VEC2"
		},
		{
			"bufferView":20,
			"componentType":5126,
			"count":8,
			"type":"VEC2"
		},
		{
			"bufferView":21,
			"componentType":5123,
			"count":18,
			"type":"SCALAR"
		},
		{
			"bufferView":22,
			"componentType":5126,
			"count":4,
			"max":[
				1,
				0,
				1
			],
			"min":[
				-1,
				0,
				-1
			],
			"type":"VEC3"
		},
		{
			"bufferView":23,
			"componentType":5126,
			"count":4,
			"type":"VEC3"
		},
		{
			"bufferView":24,
			"componentType":5126,
			"count":4,
			"type":"VEC2"
		},
		{
			"bufferView":25,
			"componentType":5123,
			"count":6,
			"type":"SCALAR"
		}
	],
	"bufferViews":[
		{
			"buffer":0,
			"byteLength":1596,
			"byteOffset":0,
			"target":34962
		},
		{
			"buffer":0,
			"byteLength":1596,
			"byteOffset":1596,
			"target":34962
		},
		{
			"buffer":0,
			"byteLength":1064,
			"byteOffset":3192,
			"target":34962
		},
		{
			"buffer":0,
			"byteLength":960,
			"byteOffset":4256,
			"target":34963
		},
		{
			"buffer":0,
			"byteLength":4080,
			"byteOffset":5216,
			"target":34962
		},
		{
			"buffer":0,
			"byteLength":4080,
			"byteOffset":9296,
			"target":34962
		},
		{
			"buffer":0,
			"byteLength":2720,
			"byteOffset":13376,
			"target":34962
		},
		{
			"buffer":0,
			"byteLength":3456,
			"byteOffset":16096,
			"target":34963
		},
		{
			"buffer":0,
			"byteLength":48,
			"byteOffset":19552,
			"target":34962
		},
		{
			"buffer":0,
			"byteLength":48,
			"byteOffset":19600,
			"target":34962
		},
		{
			"buffer":0,
			"byteLength":32,
			"byteOffset":19648,
			"target":34962
		},
		{
			"buffer":0,
			"byteLength":12,
			"byteOffset":19680,
			"target":34963
		},
		{
			"buffer":0,
			"byteLength":7908,
			"byteOffset":19692,
			"target":34962
		},
		{
			"buffer":0,
			"byteLength":7908,
			"byteOffset":27600,
			"target":34962
		},
		{
			"buffer":0,
			"byteLength":5272,
			"byteOffset":35508,
			"target":34962
		},
		{
			"buffer":0,
			"byteLength":5272,
			"byteOffset":40780,
			"target":34962
		},
		{
			"buffer":0,
			"byteLength":3564,
			"byteOffset":46052,
			"target":34963
		},
		{
			"buffer":0,
			"byteLength":96,
			"byteOffset":49616,
			"target":34962
		},
		{
			"buffer":0,
			"byteLength":96,
			"byteOffset":49712,
			"target":34962
		},
		{
			"buffer":0,
			"byteLength":64,
			"byteOffset":49808,
			"target":34962
		},
		{
			"buffer":0,
			"byteLength":64,
			"byteOffset":49872,
			"target":34962
		},
		{
			"buffer":0,
			"byteLength":36,
			"byteOffset":49936,
			"target":34963
		},
		{
			"buffer":0,
			"byteLength":48,
			"byteOffset":49972,
			"target":34962
		},
		{
			"buffer":0,
			"byteLength":48,
			"byteOffset":50020,
			"target":34962
		},
		{
			"buffer":0,
			"byteLength":32,
			"byteOffset":50068,
			"target":34962
		},
		{
			"buffer":0,
			"byteLength":12,
			"byteOffset":50100,
			"target":34963
		}
	],
	"samplers":[
		{
			"magFilter":9729,
			"minFilter":9987
		}
	],
	"buffers":[
		{
			"byteLength":50112,
			"uri":"scene.bin"
		}
	]
}
