{
	"asset":{
		"generator":"Khronos glTF Blender I/O v4.1.63",
		"version":"2.0"
	},
	"extensionsUsed":[
		"KHR_materials_specular"
	],
	"scene":0,
	"scenes":[
		{
			"name":"Scene",
			"nodes":[
				7,
				8,
				15,
				16
			]
		}
	],
	"nodes":[
		{
			"mesh":0,
			"name":"Frame_Frame_0"
		},
		{
			"mesh":1,
			"name":"Frame_Light_0"
		},
		{
			"children":[
				0,
				1
			],
			"name":"Frame",
			"scale":[
				100,
				100,
				100
			],
			"translation":[
				0,
				50.404945373535156,
				0
			]
		},
		{
			"mesh":2,
			"name":"Picture_Picture_0",
			"translation":[
				0,
				0,
				0.025646721944212914
			]
		},
		{
			"children":[
				3
			],
			"name":"Picture",
			"scale":[
				100,
				100,
				100
			],
			"translation":[
				0,
				50.404945373535156,
				0
			]
		},
		{
			"children":[
				2,
				4
			],
			"name":"RootNode",
			"translation":[
				0,
				-7.62939453125e-06,
				0
			]
		},
		{
			"children":[
				5
			],
			"name":"DonutPainting.fbx",
			"rotation":[
				0.70710688829422,
				0,
				0,
				0.7071066498756409
			],
			"translation":[
				0,
				0,
				-7.62939453125e-06
			]
		},
		{
			"children":[
				6
			],
			"name":"Sketchfab_model",
			"rotation":[
				-0.70710688829422,
				0,
				0,
				0.7071066498756409
			],
			"translation":[
				0,
				-50.281158447265625,
				0
			]
		},
		{
			"mesh":3,
			"name":"Plane.001",
			"rotation":[
				0.70710688829422,
				0,
				0,
				0.7071066498756409
			],
			"scale":[
				0.6499999761581421,
				1,
				0.6499999761581421
			],
			"translation":[
				0,
				-49.35118865966797,
				0
			]
		},
		{
			"mesh":4,
			"name":"red_button",
			"translation":[
				108.07842254638672,
				-111.47559356689453,
				282.1353759765625
			]
		},
		{
			"children":[
				9
			],
			"name":"Button_Cyrcle_1_Button",
			"translation":[
				-100,
				-1.7881393432617188e-05,
				3.7476420402526855e-05
			]
		},
		{
			"mesh":5,
			"name":"Button_Cyrcle_1_Frame_Button_Cyrcle_1_0",
			"translation":[
				108.07842254638672,
				-111.47559356689453,
				282.1353759765625
			]
		},
		{
			"children":[
				11
			],
			"name":"Button_Cyrcle_1_Frame",
			"translation":[
				-100,
				-1.7881393432617188e-05,
				3.7476420402526855e-05
			]
		},
		{
			"children":[
				10,
				12
			],
			"name":"RootNode.001",
			"translation":[
				0,
				-1.7940998077392578e-05,
				3.746151924133301e-05
			]
		},
		{
			"children":[
				13
			],
			"name":"Buttons_Cyrcle_1.fbx",
			"rotation":[
				0.70710688829422,
				0,
				0,
				0.7071066498756409
			],
			"scale":[
				0.009999999776482582,
				0.009999997913837433,
				0.009999997913837433
			]
		},
		{
			"children":[
				14
			],
			"name":"Sketchfab_model.001",
			"rotation":[
				0.0007149519515223801,
				0,
				0,
				1
			],
			"scale":[
				10,
				10,
				10
			],
			"translation":[
				0,
				-55.989864349365234,
				11.276583671569824
			]
		},
		{
			"mesh":6,
			"name":"Plane",
			"rotation":[
				0.70710688829422,
				0,
				0,
				0.7071066498756409
			],
			"scale":[
				0.6499999761581421,
				1,
				0.6500000357627869
			],
			"translation":[
				0,
				0.9299705028533936,
				0
			]
		}
	],
	"materials":[
		{
			"doubleSided":true,
			"name":"Frame.002",
			"normalTexture":{
				"index":0
			},
			"pbrMetallicRoughness":{
				"baseColorTexture":{
					"index":1
				},
				"metallicFactor":0,
				"roughnessFactor":0.8211145401000977
			}
		},
		{
			"doubleSided":true,
			"emissiveFactor":[
				1,
				1,
				1
			],
			"name":"Light.002",
			"pbrMetallicRoughness":{
				"baseColorFactor":[
					0.800000011920929,
					0.800000011920929,
					0.800000011920929,
					1
				],
				"metallicFactor":0,
				"roughnessFactor":0.8211145401000977
			}
		},
		{
			"doubleSided":true,
			"name":"Picture.002",
			"pbrMetallicRoughness":{
				"baseColorTexture":{
					"index":2
				},
				"metallicFactor":0,
				"roughnessFactor":0
			}
		},
		{
			"doubleSided":true,
			"extensions":{
				"KHR_materials_specular":{
					"specularFactor":0
				}
			},
			"name":"Button_Cyrcle_1.003",
			"normalTexture":{
				"index":3
			},
			"occlusionTexture":{
				"index":4
			},
			"pbrMetallicRoughness":{
				"baseColorTexture":{
					"index":5
				},
				"metallicFactor":0.5,
				"metallicRoughnessTexture":{
					"index":4
				},
				"roughnessFactor":0
			}
		}
	],
	"meshes":[
		{
			"name":"Frame_Frame_0.002",
			"primitives":[
				{
					"attributes":{
						"POSITION":0,
						"NORMAL":1,
						"TEXCOORD_0":2
					},
					"indices":3,
					"material":0
				}
			]
		},
		{
			"name":"Frame_Light_0.002",
			"primitives":[
				{
					"attributes":{
						"POSITION":4,
						"NORMAL":5,
						"TEXCOORD_0":6
					},
					"indices":7,
					"material":1
				}
			]
		},
		{
			"name":"Picture_Picture_0.002",
			"primitives":[
				{
					"attributes":{
						"POSITION":8,
						"NORMAL":9,
						"TEXCOORD_0":10
					},
					"indices":11,
					"material":2
				}
			]
		},
		{
			"name":"Plane.010",
			"primitives":[
				{
					"attributes":{
						"POSITION":12,
						"NORMAL":13,
						"TEXCOORD_0":14
					},
					"indices":15
				}
			]
		},
		{
			"name":"Button_Cyrcle_1_Button_Button_Cyrcle_1_0.003",
			"primitives":[
				{
					"attributes":{
						"POSITION":16,
						"NORMAL":17,
						"TEXCOORD_0":18
					},
					"indices":19,
					"material":3
				}
			]
		},
		{
			"name":"Button_Cyrcle_1_Frame_Button_Cyrcle_1_0.003",
			"primitives":[
				{
					"attributes":{
						"POSITION":20,
						"NORMAL":21,
						"TEXCOORD_0":22
					},
					"indices":23,
					"material":3
				}
			]
		},
		{
			"name":"Plane.011",
			"primitives":[
				{
					"attributes":{
						"POSITION":24,
						"NORMAL":25,
						"TEXCOORD_0":26
					},
					"indices":15
				}
			]
		}
	],
	"textures":[
		{
			"sampler":0,
			"source":0
		},
		{
			"sampler":0,
			"source":1
		},
		{
			"sampler":0,
			"source":2
		},
		{
			"sampler":0,
			"source":3
		},
		{
			"sampler":0,
			"source":4
		},
		{
			"sampler":0,
			"source":5
		}
	],
	"images":[
		{
			"mimeType":"image/png",
			"name":"Frame_normal",
			"uri":"Frame_normal.png"
		},
		{
			"mimeType":"image/jpeg",
			"name":"Frame_baseColor",
			"uri":"Frame_baseColor.jpg"
		},
		{
			"mimeType":"image/png",
			"name":"Picture_baseColor",
			"uri":"Picture_baseColor.png"
		},
		{
			"mimeType":"image/png",
			"name":"Button_Cyrcle_1_normal",
			"uri":"Button_Cyrcle_1_normal.png"
		},
		{
			"mimeType":"image/png",
			"name":"Button_Cyrcle_1_metallicRoughness",
			"uri":"Button_Cyrcle_1_metallicRoughness.png"
		},
		{
			"mimeType":"image/png",
			"name":"Button_Cyrcle_1_baseColor",
			"uri":"Button_Cyrcle_1_baseColor.png"
		}
	],
	"accessors":[
		{
			"bufferView":0,
			"componentType":5126,
			"count":1223,
			"max":[
				0.7770119905471802,
				0.7770119905471802,
				0.137623131275177
			],
			"min":[
				-0.7770119905471802,
				-0.7770119905471802,
				-0.0019625218119472265
			],
			"type":"VEC3"
		},
		{
			"bufferView":1,
			"componentType":5126,
			"count":1223,
			"type":"VEC3"
		},
		{
			"bufferView":2,
			"componentType":5126,
			"count":1223,
			"type":"VEC2"
		},
		{
			"bufferView":3,
			"componentType":5123,
			"count":4224,
			"type":"SCALAR"
		},
		{
			"bufferView":4,
			"componentType":5126,
			"count":72,
			"max":[
				0.5315025448799133,
				0.5315025448799133,
				0.08327310532331467
			],
			"min":[
				-0.5315025448799133,
				-0.5315025448799133,
				0.05551540479063988
			],
			"type":"VEC3"
		},
		{
			"bufferView":5,
			"componentType":5126,
			"count":72,
			"type":"VEC3"
		},
		{
			"bufferView":6,
			"componentType":5126,
			"count":72,
			"type":"VEC2"
		},
		{
			"bufferView":7,
			"componentType":5123,
			"count":144,
			"type":"SCALAR"
		},
		{
			"bufferView":8,
			"componentType":5126,
			"count":4,
			"max":[
				0.5,
				0.5,
				0
			],
			"min":[
				-0.5,
				-0.5,
				0
			],
			"type":"VEC3"
		},
		{
			"bufferView":9,
			"componentType":5126,
			"count":4,
			"type":"VEC3"
		},
		{
			"bufferView":10,
			"componentType":5126,
			"count":4,
			"type":"VEC2"
		},
		{
			"bufferView":11,
			"componentType":5123,
			"count":6,
			"type":"SCALAR"
		},
		{
			"bufferView":12,
			"componentType":5126,
			"count":4,
			"max":[
				1,
				0,
				1
			],
			"min":[
				-1,
				0,
				-1
			],
			"type":"VEC3"
		},
		{
			"bufferView":13,
			"componentType":5126,
			"count":4,
			"type":"VEC3"
		},
		{
			"bufferView":14,
			"componentType":5126,
			"count":4,
			"type":"VEC2"
		},
		{
			"bufferView":15,
			"componentType":5123,
			"count":6,
			"type":"SCALAR"
		},
		{
			"bufferView":16,
			"componentType":5126,
			"count":133,
			"max":[
				30.000001907348633,
				20.000015258789062,
				30.000001907348633
			],
			"min":[
				-30.000001907348633,
				-3.725290298461914e-07,
				-30.000001907348633
			],
			"type":"VEC3"
		},
		{
			"bufferView":17,
			"componentType":5126,
			"count":133,
			"type":"VEC3"
		},
		{
			"bufferView":18,
			"componentType":5126,
			"count":133,
			"type":"VEC2"
		},
		{
			"bufferView":19,
			"componentType":5123,
			"count":480,
			"type":"SCALAR"
		},
		{
			"bufferView":20,
			"componentType":5126,
			"count":340,
			"max":[
				40,
				6.500000476837158,
				40
			],
			"min":[
				-40,
				0,
				-40
			],
			"type":"VEC3"
		},
		{
			"bufferView":21,
			"componentType":5126,
			"count":340,
			"type":"VEC3"
		},
		{
			"bufferView":22,
			"componentType":5126,
			"count":340,
			"type":"VEC2"
		},
		{
			"bufferView":23,
			"componentType":5123,
			"count":1728,
			"type":"SCALAR"
		},
		{
			"bufferView":24,
			"componentType":5126,
			"count":4,
			"max":[
				1,
				0,
				1
			],
			"min":[
				-1,
				0,
				-1
			],
			"type":"VEC3"
		},
		{
			"bufferView":25,
			"componentType":5126,
			"count":4,
			"type":"VEC3"
		},
		{
			"bufferView":26,
			"componentType":5126,
			"count":4,
			"type":"VEC2"
		}
	],
	"bufferViews":[
		{
			"buffer":0,
			"byteLength":14676,
			"byteOffset":0,
			"target":34962
		},
		{
			"buffer":0,
			"byteLength":14676,
			"byteOffset":14676,
			"target":34962
		},
		{
			"buffer":0,
			"byteLength":9784,
			"byteOffset":29352,
			"target":34962
		},
		{
			"buffer":0,
			"byteLength":8448,
			"byteOffset":39136,
			"target":34963
		},
		{
			"buffer":0,
			"byteLength":864,
			"byteOffset":47584,
			"target":34962
		},
		{
			"buffer":0,
			"byteLength":864,
			"byteOffset":48448,
			"target":34962
		},
		{
			"buffer":0,
			"byteLength":576,
			"byteOffset":49312,
			"target":34962
		},
		{
			"buffer":0,
			"byteLength":288,
			"byteOffset":49888,
			"target":34963
		},
		{
			"buffer":0,
			"byteLength":48,
			"byteOffset":50176,
			"target":34962
		},
		{
			"buffer":0,
			"byteLength":48,
			"byteOffset":50224,
			"target":34962
		},
		{
			"buffer":0,
			"byteLength":32,
			"byteOffset":50272,
			"target":34962
		},
		{
			"buffer":0,
			"byteLength":12,
			"byteOffset":50304,
			"target":34963
		},
		{
			"buffer":0,
			"byteLength":48,
			"byteOffset":50316,
			"target":34962
		},
		{
			"buffer":0,
			"byteLength":48,
			"byteOffset":50364,
			"target":34962
		},
		{
			"buffer":0,
			"byteLength":32,
			"byteOffset":50412,
			"target":34962
		},
		{
			"buffer":0,
			"byteLength":12,
			"byteOffset":50444,
			"target":34963
		},
		{
			"buffer":0,
			"byteLength":1596,
			"byteOffset":50456,
			"target":34962
		},
		{
			"buffer":0,
			"byteLength":1596,
			"byteOffset":52052,
			"target":34962
		},
		{
			"buffer":0,
			"byteLength":1064,
			"byteOffset":53648,
			"target":34962
		},
		{
			"buffer":0,
			"byteLength":960,
			"byteOffset":54712,
			"target":34963
		},
		{
			"buffer":0,
			"byteLength":4080,
			"byteOffset":55672,
			"target":34962
		},
		{
			"buffer":0,
			"byteLength":4080,
			"byteOffset":59752,
			"target":34962
		},
		{
			"buffer":0,
			"byteLength":2720,
			"byteOffset":63832,
			"target":34962
		},
		{
			"buffer":0,
			"byteLength":3456,
			"byteOffset":66552,
			"target":34963
		},
		{
			"buffer":0,
			"byteLength":48,
			"byteOffset":70008,
			"target":34962
		},
		{
			"buffer":0,
			"byteLength":48,
			"byteOffset":70056,
			"target":34962
		},
		{
			"buffer":0,
			"byteLength":32,
			"byteOffset":70104,
			"target":34962
		}
	],
	"samplers":[
		{
			"magFilter":9729,
			"minFilter":9987
		}
	],
	"buffers":[
		{
			"byteLength":70136,
			"uri":"scene.bin"
		}
	]
}
