{
	"asset":{
		"generator":"Khronos glTF Blender I/O v4.1.63",
		"version":"2.0"
	},
	"scene":0,
	"scenes":[
		{
			"name":"Scene",
			"nodes":[
				5
			]
		}
	],
	"nodes":[
		{
			"mesh":0,
			"name":"Ramp01_edit_Atlas_1_0",
			"translation":[
				0.4355146586894989,
				-0.0023315981961786747,
				-0.0006178956246003509
			]
		},
		{
			"mesh":1,
			"name":"Ramp01_edit_Atlas_1_0.001",
			"rotation":[
				0.9999846816062927,
				-0.005353581625968218,
				-0.0014187494525685906,
				0
			],
			"scale":[
				-1,
				-0.9999997615814209,
				-0.9999999403953552
			],
			"translation":[
				-0.44037535786628723,
				0.002357620745897293,
				0.0006247918354347348
			]
		},
		{
			"children":[
				0,
				1
			],
			"name":"Ramp01_edit",
			"rotation":[
				0.0026904998812824488,
				0.9997947216033936,
				0.02007204294204712,
				0.0006555052823387086
			],
			"scale":[
				36.29209899902344,
				36.29209899902344,
				36.292083740234375
			],
			"translation":[
				0.03158301115036011,
				0,
				0
			]
		},
		{
			"children":[
				2
			],
			"name":"RootNode"
		},
		{
			"children":[
				3
			],
			"name":"220479405ba54147a93f0e6ad37c35ed.fbx",
			"rotation":[
				0.70710688829422,
				0,
				0,
				0.7071066498756409
			],
			"scale":[
				0.009999999776482582,
				0.010000000707805157,
				0.010000000707805157
			]
		},
		{
			"children":[
				4
			],
			"name":"Sketchfab_model",
			"rotation":[
				-0.70710688829422,
				0,
				0,
				0.7071066498756409
			]
		}
	],
	"materials":[
		{
			"doubleSided":true,
			"name":"Atlas_1",
			"normalTexture":{
				"index":0
			},
			"pbrMetallicRoughness":{
				"baseColorTexture":{
					"index":1
				},
				"metallicFactor":0,
				"roughnessFactor":0.7976481318473816
			}
		}
	],
	"meshes":[
		{
			"name":"Ramp01_edit_Atlas_1_0",
			"primitives":[
				{
					"attributes":{
						"POSITION":0,
						"NORMAL":1,
						"TEXCOORD_0":2,
						"TEXCOORD_1":3
					},
					"indices":4,
					"material":0
				}
			]
		},
		{
			"name":"Ramp01_edit_Atlas_1_0.001",
			"primitives":[
				{
					"attributes":{
						"POSITION":5,
						"NORMAL":6,
						"TEXCOORD_0":7,
						"TEXCOORD_1":8
					},
					"indices":4,
					"material":0
				}
			]
		}
	],
	"textures":[
		{
			"sampler":0,
			"source":0
		},
		{
			"sampler":0,
			"source":1
		}
	],
	"images":[
		{
			"mimeType":"image/png",
			"name":"Atlas_1_normal",
			"uri":"Atlas_1_normal.png"
		},
		{
			"mimeType":"image/png",
			"name":"Atlas_1_baseColor",
			"uri":"Atlas_1_baseColor.png"
		}
	],
	"accessors":[
		{
			"bufferView":0,
			"componentType":5126,
			"count":650,
			"max":[
				-0.4377853274345398,
				6.173130512237549,
				10
			],
			"min":[
				-2.582066774368286,
				-8.791694199317135e-06,
				-9.999999046325684
			],
			"type":"VEC3"
		},
		{
			"bufferView":1,
			"componentType":5126,
			"count":650,
			"type":"VEC3"
		},
		{
			"bufferView":2,
			"componentType":5126,
			"count":650,
			"type":"VEC2"
		},
		{
			"bufferView":3,
			"componentType":5126,
			"count":650,
			"type":"VEC2"
		},
		{
			"bufferView":4,
			"componentType":5123,
			"count":888,
			"type":"SCALAR"
		},
		{
			"bufferView":5,
			"componentType":5126,
			"count":650,
			"max":[
				-0.4377853274345398,
				6.173130512237549,
				10
			],
			"min":[
				-2.582066774368286,
				-8.791694199317135e-06,
				-9.999999046325684
			],
			"type":"VEC3"
		},
		{
			"bufferView":6,
			"componentType":5126,
			"count":650,
			"type":"VEC3"
		},
		{
			"bufferView":7,
			"componentType":5126,
			"count":650,
			"type":"VEC2"
		},
		{
			"bufferView":8,
			"componentType":5126,
			"count":650,
			"type":"VEC2"
		}
	],
	"bufferViews":[
		{
			"buffer":0,
			"byteLength":7800,
			"byteOffset":0,
			"target":34962
		},
		{
			"buffer":0,
			"byteLength":7800,
			"byteOffset":7800,
			"target":34962
		},
		{
			"buffer":0,
			"byteLength":5200,
			"byteOffset":15600,
			"target":34962
		},
		{
			"buffer":0,
			"byteLength":5200,
			"byteOffset":20800,
			"target":34962
		},
		{
			"buffer":0,
			"byteLength":1776,
			"byteOffset":26000,
			"target":34963
		},
		{
			"buffer":0,
			"byteLength":7800,
			"byteOffset":27776,
			"target":34962
		},
		{
			"buffer":0,
			"byteLength":7800,
			"byteOffset":35576,
			"target":34962
		},
		{
			"buffer":0,
			"byteLength":5200,
			"byteOffset":43376,
			"target":34962
		},
		{
			"buffer":0,
			"byteLength":5200,
			"byteOffset":48576,
			"target":34962
		}
	],
	"samplers":[
		{
			"magFilter":9729,
			"minFilter":9987
		}
	],
	"buffers":[
		{
			"byteLength":53776,
			"uri":"scene.bin"
		}
	]
}
