{
	"asset":{
		"generator":"Khronos glTF Blender I/O v4.1.63",
		"version":"2.0"
	},
	"extensionsUsed":[
		"KHR_materials_clearcoat",
		"KHR_materials_specular"
	],
	"scene":0,
	"scenes":[
		{
			"name":"Scene",
			"nodes":[
				3,
				5,
				7,
				14,
				18
			]
		}
	],
	"nodes":[
		{
			"mesh":0,
			"name":"Object_2",
			"translation":[
				0.08579792827367783,
				-0.0002158475253963843,
				0
			]
		},
		{
			"mesh":1,
			"name":"Object_3",
			"rotation":[
				0,
				0,
				-0.001216627424582839,
				1
			]
		},
		{
			"children":[
				0,
				1
			],
			"name":"Square Picture Frame White.obj.cleaner.materialmerger.gles.001"
		},
		{
			"children":[
				2
			],
			"name":"Sketchfab_model.004",
			"rotation":[
				-0.5006287693977356,
				-0.49937066435813904,
				-0.49937066435813904,
				0.5006284713745117
			]
		},
		{
			"name":"2cb675eff3214530bef1bb5d812ba1b9.obj.cleaner.materialmerger.gle"
		},
		{
			"children":[
				4
			],
			"name":"Sketchfab_model.003",
			"rotation":[
				-0.70710688829422,
				0,
				0,
				0.7071066498756409
			],
			"scale":[
				1,
				2.0572164058685303,
				1
			],
			"translation":[
				-0.6876716613769531,
				-2.2082133293151855,
				0
			]
		},
		{
			"name":"Square Picture Frame White.obj.cleaner.materialmerger.gles"
		},
		{
			"children":[
				6
			],
			"name":"Sketchfab_model.002",
			"rotation":[
				-0.498929500579834,
				-0.501068115234375,
				-0.5010684728622437,
				0.49892935156822205
			],
			"scale":[
				10.000001907348633,
				10.000001907348633,
				10.000000953674316
			],
			"translation":[
				-0.6876716613769531,
				-2.2347543239593506,
				0
			]
		},
		{
			"mesh":2,
			"name":"red_button",
			"scale":[
				1.507095217704773,
				1,
				1.5099542140960693
			],
			"translation":[
				142.9942626953125,
				-40.60740661621094,
				179.23097229003906
			]
		},
		{
			"children":[
				8
			],
			"name":"Button_Cyrcle_1_Button",
			"translation":[
				-100.00001525878906,
				0,
				-1.2427568435668945e-05
			]
		},
		{
			"mesh":3,
			"name":"Button_Cyrcle_1_Frame_Button_Cyrcle_1_0",
			"scale":[
				1.507095217704773,
				2.5564098358154297,
				1.5099542140960693
			],
			"translation":[
				142.9942626953125,
				-50.345211029052734,
				179.2375030517578
			]
		},
		{
			"children":[
				10
			],
			"name":"Button_Cyrcle_1_Frame",
			"translation":[
				-100.00001525878906,
				0,
				-1.2427568435668945e-05
			]
		},
		{
			"children":[
				9,
				11
			],
			"name":"RootNode.001",
			"translation":[
				-3.814697265625e-06,
				0,
				-1.2427568435668945e-05
			]
		},
		{
			"children":[
				12
			],
			"name":"Buttons_Cyrcle_1.fbx",
			"rotation":[
				0.70710688829422,
				0,
				0,
				0.7071066498756409
			],
			"scale":[
				0.009999997913837433,
				0.009999999776482582,
				0.009999999776482582
			]
		},
		{
			"children":[
				13
			],
			"name":"Sketchfab_model.001",
			"rotation":[
				-0.00033263867953792214,
				0,
				0,
				1
			],
			"scale":[
				0.12488448619842529,
				0.13311004638671875,
				0.26198381185531616
			],
			"translation":[
				-0.056010693311691284,
				-1.1500040292739868,
				0.07705092430114746
			]
		},
		{
			"name":"Bild_0",
			"rotation":[
				0,
				0,
				0.7076792120933533,
				0.7065339088439941
			],
			"scale":[
				0.32086628675460815,
				0.32707035541534424,
				0.3292405307292938
			],
			"translation":[
				-0.001039647962898016,
				0.0017596156103536487,
				0.011709090322256088
			]
		},
		{
			"children":[
				15
			],
			"name":"GLTF_SceneRootNode",
			"rotation":[
				0.70710688829422,
				0,
				0,
				0.7071066498756409
			]
		},
		{
			"children":[
				16
			],
			"name":"root"
		},
		{
			"children":[
				17
			],
			"name":"Sketchfab_model",
			"scale":[
				100,
				100,
				100
			],
			"translation":[
				-0.23002144694328308,
				-1.1025315523147583,
				0
			]
		}
	],
	"materials":[
		{
			"doubleSided":true,
			"name":"None.005",
			"pbrMetallicRoughness":{
				"baseColorTexture":{
					"index":0
				},
				"metallicFactor":0
			}
		},
		{
			"doubleSided":true,
			"extensions":{
				"KHR_materials_clearcoat":{
					"clearcoatFactor":1,
					"clearcoatRoughnessFactor":0.47439393401145935,
					"clearcoatTexture":{
						"index":1
					}
				}
			},
			"name":"None_whitewoodpaint.jpg.005",
			"pbrMetallicRoughness":{
				"baseColorTexture":{
					"index":2
				},
				"metallicFactor":0,
				"roughnessFactor":0.26499998569488525
			}
		},
		{
			"doubleSided":true,
			"extensions":{
				"KHR_materials_specular":{
					"specularFactor":0
				}
			},
			"name":"Button_Cyrcle_1.005",
			"normalTexture":{
				"index":3
			},
			"occlusionTexture":{
				"index":4
			},
			"pbrMetallicRoughness":{
				"baseColorTexture":{
					"index":5
				},
				"metallicFactor":0.5,
				"metallicRoughnessTexture":{
					"index":4
				},
				"roughnessFactor":0
			}
		}
	],
	"meshes":[
		{
			"name":"Object_0.013",
			"primitives":[
				{
					"attributes":{
						"POSITION":0,
						"NORMAL":1,
						"TEXCOORD_0":2
					},
					"indices":3,
					"material":0
				}
			]
		},
		{
			"name":"Object_1.007",
			"primitives":[
				{
					"attributes":{
						"POSITION":4,
						"NORMAL":5,
						"TEXCOORD_0":6
					},
					"indices":7,
					"material":1
				}
			]
		},
		{
			"name":"Button_Cyrcle_1_Button_Button_Cyrcle_1_0.005",
			"primitives":[
				{
					"attributes":{
						"POSITION":8,
						"NORMAL":9,
						"TEXCOORD_0":10
					},
					"indices":11,
					"material":2
				}
			]
		},
		{
			"name":"Button_Cyrcle_1_Frame_Button_Cyrcle_1_0.005",
			"primitives":[
				{
					"attributes":{
						"POSITION":12,
						"NORMAL":13,
						"TEXCOORD_0":14
					},
					"indices":15,
					"material":2
				}
			]
		}
	],
	"textures":[
		{
			"sampler":0,
			"source":0
		},
		{
			"sampler":0,
			"source":1
		},
		{
			"sampler":0,
			"source":2
		},
		{
			"sampler":0,
			"source":3
		},
		{
			"sampler":0,
			"source":4
		},
		{
			"sampler":0,
			"source":5
		}
	],
	"images":[
		{
			"mimeType":"image/jpeg",
			"name":"None_baseColor",
			"uri":"None_baseColor.jpg"
		},
		{
			"mimeType":"image/png",
			"name":"None_whitewoodpaint_jpg_clearcoat",
			"uri":"None_whitewoodpaint_jpg_clearcoat.png"
		},
		{
			"mimeType":"image/jpeg",
			"name":"None_whitewoodpaint_jpg_baseColor",
			"uri":"None_whitewoodpaint_jpg_baseColor.jpg"
		},
		{
			"mimeType":"image/png",
			"name":"Button_Cyrcle_1_normal",
			"uri":"Button_Cyrcle_1_normal.png"
		},
		{
			"mimeType":"image/png",
			"name":"Button_Cyrcle_1_metallicRoughness",
			"uri":"Button_Cyrcle_1_metallicRoughness.png"
		},
		{
			"mimeType":"image/png",
			"name":"Button_Cyrcle_1_baseColor",
			"uri":"Button_Cyrcle_1_baseColor.png"
		}
	],
	"accessors":[
		{
			"bufferView":0,
			"componentType":5126,
			"count":4,
			"max":[
				-0.05172700062394142,
				1.1370329856872559,
				1.1370329856872559
			],
			"min":[
				-0.05172700062394142,
				-1.1370329856872559,
				-1.1370329856872559
			],
			"type":"VEC3"
		},
		{
			"bufferView":1,
			"componentType":5126,
			"count":4,
			"type":"VEC3"
		},
		{
			"bufferView":2,
			"componentType":5126,
			"count":4,
			"type":"VEC2"
		},
		{
			"bufferView":3,
			"componentType":5123,
			"count":6,
			"type":"SCALAR"
		},
		{
			"bufferView":4,
			"componentType":5126,
			"count":56,
			"max":[
				0.09000000357627869,
				1.1699999570846558,
				1.2100000381469727
			],
			"min":[
				-0.09000000357627869,
				-1.1699999570846558,
				-1.2100000381469727
			],
			"type":"VEC3"
		},
		{
			"bufferView":5,
			"componentType":5126,
			"count":56,
			"type":"VEC3"
		},
		{
			"bufferView":6,
			"componentType":5126,
			"count":56,
			"type":"VEC2"
		},
		{
			"bufferView":7,
			"componentType":5123,
			"count":84,
			"type":"SCALAR"
		},
		{
			"bufferView":8,
			"componentType":5126,
			"count":133,
			"max":[
				30.000001907348633,
				5.859601974487305,
				30.000001907348633
			],
			"min":[
				-30.000001907348633,
				-14.140414237976074,
				-30.000001907348633
			],
			"type":"VEC3"
		},
		{
			"bufferView":9,
			"componentType":5126,
			"count":133,
			"type":"VEC3"
		},
		{
			"bufferView":10,
			"componentType":5126,
			"count":133,
			"type":"VEC2"
		},
		{
			"bufferView":11,
			"componentType":5123,
			"count":480,
			"type":"SCALAR"
		},
		{
			"bufferView":12,
			"componentType":5126,
			"count":340,
			"max":[
				40,
				2.097393035888672,
				40
			],
			"min":[
				-40,
				-4.402607440948486,
				-40
			],
			"type":"VEC3"
		},
		{
			"bufferView":13,
			"componentType":5126,
			"count":340,
			"type":"VEC3"
		},
		{
			"bufferView":14,
			"componentType":5126,
			"count":340,
			"type":"VEC2"
		},
		{
			"bufferView":15,
			"componentType":5123,
			"count":1728,
			"type":"SCALAR"
		}
	],
	"bufferViews":[
		{
			"buffer":0,
			"byteLength":48,
			"byteOffset":0,
			"target":34962
		},
		{
			"buffer":0,
			"byteLength":48,
			"byteOffset":48,
			"target":34962
		},
		{
			"buffer":0,
			"byteLength":32,
			"byteOffset":96,
			"target":34962
		},
		{
			"buffer":0,
			"byteLength":12,
			"byteOffset":128,
			"target":34963
		},
		{
			"buffer":0,
			"byteLength":672,
			"byteOffset":140,
			"target":34962
		},
		{
			"buffer":0,
			"byteLength":672,
			"byteOffset":812,
			"target":34962
		},
		{
			"buffer":0,
			"byteLength":448,
			"byteOffset":1484,
			"target":34962
		},
		{
			"buffer":0,
			"byteLength":168,
			"byteOffset":1932,
			"target":34963
		},
		{
			"buffer":0,
			"byteLength":1596,
			"byteOffset":2100,
			"target":34962
		},
		{
			"buffer":0,
			"byteLength":1596,
			"byteOffset":3696,
			"target":34962
		},
		{
			"buffer":0,
			"byteLength":1064,
			"byteOffset":5292,
			"target":34962
		},
		{
			"buffer":0,
			"byteLength":960,
			"byteOffset":6356,
			"target":34963
		},
		{
			"buffer":0,
			"byteLength":4080,
			"byteOffset":7316,
			"target":34962
		},
		{
			"buffer":0,
			"byteLength":4080,
			"byteOffset":11396,
			"target":34962
		},
		{
			"buffer":0,
			"byteLength":2720,
			"byteOffset":15476,
			"target":34962
		},
		{
			"buffer":0,
			"byteLength":3456,
			"byteOffset":18196,
			"target":34963
		}
	],
	"samplers":[
		{
			"magFilter":9729,
			"minFilter":9987
		}
	],
	"buffers":[
		{
			"byteLength":21652,
			"uri":"scene.bin"
		}
	]
}
