{
	"asset":{
		"generator":"Khronos glTF Blender I/O v4.1.63",
		"version":"2.0"
	},
	"extensionsUsed":[
		"KHR_materials_specular"
	],
	"scene":0,
	"scenes":[
		{
			"name":"Scene",
			"nodes":[
				6,
				10,
				11
			]
		}
	],
	"nodes":[
		{
			"mesh":0,
			"name":"red_button",
			"rotation":[
				0,
				0.0021157346200197935,
				0.9999977946281433,
				0.000373228220269084
			],
			"scale":[
				0.09680937975645065,
				0.12335008382797241,
				0.09711038321256638
			],
			"translation":[
				154.47088623046875,
				-90.40282440185547,
				-56.606876373291016
			]
		},
		{
			"children":[
				0
			],
			"name":"Button_Cyrcle_1_Button",
			"translation":[
				-99.99999237060547,
				3.230268703191541e-06,
				0.00010233372449874878
			]
		},
		{
			"mesh":1,
			"name":"Button_Cyrcle_1_Frame_Button_Cyrcle_1_0",
			"rotation":[
				0,
				0.0021157346200197935,
				0.9999977946281433,
				0.000373228220269084
			],
			"scale":[
				0.09680937975645065,
				0.12335008382797241,
				0.09711038321256638
			],
			"translation":[
				154.47088623046875,
				-90.40282440185547,
				-56.606876373291016
			]
		},
		{
			"children":[
				2
			],
			"name":"Button_Cyrcle_1_Frame",
			"translation":[
				-99.99999237060547,
				3.230268703191541e-06,
				0.00010233372449874878
			]
		},
		{
			"children":[
				1,
				3
			],
			"name":"RootNode.001",
			"translation":[
				0,
				3.1406129892275203e-06,
				0.00010401848703622818
			]
		},
		{
			"children":[
				4
			],
			"name":"Buttons_Cyrcle_1.fbx",
			"rotation":[
				0.70710688829422,
				0,
				0,
				0.7071066498756409
			],
			"scale":[
				0.010000000707805157,
				0.009999996982514858,
				0.009999996982514858
			]
		},
		{
			"children":[
				5
			],
			"name":"Sketchfab_model.001",
			"rotation":[
				0.0006000147550366819,
				-0.0005998634151183069,
				-0.7070174217224121,
				0.7071956992149353
			],
			"scale":[
				1.2400094270706177,
				1.3146761655807495,
				2.617661237716675
			],
			"translation":[
				-0.7477250099182129,
				-0.4537237584590912,
				2.4360880851745605
			]
		},
		{
			"mesh":2,
			"name":"defaultMaterial"
		},
		{
			"children":[
				7
			],
			"name":"Symmetry_1"
		},
		{
			"children":[
				8
			],
			"name":"Collada visual scene group",
			"rotation":[
				0.70710688829422,
				0,
				0,
				0.7071066498756409
			]
		},
		{
			"children":[
				9
			],
			"name":"Sketchfab_model",
			"rotation":[
				-0.5000631809234619,
				0.49993693828582764,
				-0.4999367892742157,
				0.5000630617141724
			],
			"translation":[
				-0.0006687641143798828,
				0.004115045070648193,
				0
			]
		},
		{
			"mesh":3,
			"name":"Plane.001",
			"rotation":[
				0.5000631809234619,
				-0.49993693828582764,
				-0.4999367892742157,
				0.5000630617141724
			],
			"scale":[
				0.8430658578872681,
				1,
				0.5025731921195984
			],
			"translation":[
				-0.0006687641143798828,
				0.004115045070648193,
				-0.01147603988647461
			]
		}
	],
	"materials":[
		{
			"doubleSided":true,
			"extensions":{
				"KHR_materials_specular":{
					"specularFactor":0
				}
			},
			"name":"Button_Cyrcle_1.007",
			"normalTexture":{
				"index":0
			},
			"occlusionTexture":{
				"index":1
			},
			"pbrMetallicRoughness":{
				"baseColorTexture":{
					"index":2
				},
				"metallicFactor":0.5,
				"metallicRoughnessTexture":{
					"index":1
				},
				"roughnessFactor":0
			}
		},
		{
			"doubleSided":true,
			"name":"defaultMaterial.002",
			"normalTexture":{
				"index":3
			},
			"pbrMetallicRoughness":{
				"baseColorTexture":{
					"index":4
				},
				"metallicRoughnessTexture":{
					"index":5
				}
			}
		},
		{
			"doubleSided":true,
			"name":"image.005",
			"pbrMetallicRoughness":{
				"baseColorTexture":{
					"index":6
				},
				"metallicFactor":0,
				"roughnessFactor":0.5
			}
		}
	],
	"meshes":[
		{
			"name":"Button_Cyrcle_1_Button_Button_Cyrcle_1_0.007",
			"primitives":[
				{
					"attributes":{
						"POSITION":0,
						"NORMAL":1,
						"TEXCOORD_0":2
					},
					"indices":3,
					"material":0
				}
			]
		},
		{
			"name":"Button_Cyrcle_1_Frame_Button_Cyrcle_1_0.007",
			"primitives":[
				{
					"attributes":{
						"POSITION":4,
						"NORMAL":5,
						"TEXCOORD_0":6
					},
					"indices":7,
					"material":0
				}
			]
		},
		{
			"name":"defaultMaterial.002",
			"primitives":[
				{
					"attributes":{
						"POSITION":8,
						"NORMAL":9,
						"TEXCOORD_0":10,
						"TEXCOORD_1":11
					},
					"indices":12,
					"material":1
				}
			]
		},
		{
			"name":"Plane.016",
			"primitives":[
				{
					"attributes":{
						"POSITION":13,
						"NORMAL":14,
						"TEXCOORD_0":15
					},
					"indices":16,
					"material":2
				}
			]
		}
	],
	"textures":[
		{
			"sampler":0,
			"source":0
		},
		{
			"sampler":0,
			"source":1
		},
		{
			"sampler":0,
			"source":2
		},
		{
			"sampler":0,
			"source":3
		},
		{
			"sampler":0,
			"source":4
		},
		{
			"sampler":0,
			"source":5
		},
		{
			"sampler":0,
			"source":6
		}
	],
	"images":[
		{
			"mimeType":"image/png",
			"name":"Button_Cyrcle_1_normal",
			"uri":"Button_Cyrcle_1_normal.png"
		},
		{
			"mimeType":"image/png",
			"name":"Button_Cyrcle_1_metallicRoughness",
			"uri":"Button_Cyrcle_1_metallicRoughness.png"
		},
		{
			"mimeType":"image/png",
			"name":"Button_Cyrcle_1_baseColor",
			"uri":"Button_Cyrcle_1_baseColor.png"
		},
		{
			"mimeType":"image/png",
			"name":"defaultMaterial_normal",
			"uri":"defaultMaterial_normal.png"
		},
		{
			"mimeType":"image/jpeg",
			"name":"defaultMaterial_baseColor",
			"uri":"defaultMaterial_baseColor.jpg"
		},
		{
			"mimeType":"image/png",
			"name":"defaultMaterial_metallicRoughness",
			"uri":"defaultMaterial_metallicRoughness.png"
		},
		{
			"mimeType":"image/png",
			"name":"imagem_baseColor",
			"uri":"imagem_baseColor.png"
		}
	],
	"accessors":[
		{
			"bufferView":0,
			"componentType":5126,
			"count":133,
			"max":[
				30.000001907348633,
				20.000015258789062,
				30.000001907348633
			],
			"min":[
				-30.000001907348633,
				-3.725290298461914e-07,
				-30.000001907348633
			],
			"type":"VEC3"
		},
		{
			"bufferView":1,
			"componentType":5126,
			"count":133,
			"type":"VEC3"
		},
		{
			"bufferView":2,
			"componentType":5126,
			"count":133,
			"type":"VEC2"
		},
		{
			"bufferView":3,
			"componentType":5123,
			"count":480,
			"type":"SCALAR"
		},
		{
			"bufferView":4,
			"componentType":5126,
			"count":340,
			"max":[
				40,
				6.500000476837158,
				40
			],
			"min":[
				-40,
				0,
				-40
			],
			"type":"VEC3"
		},
		{
			"bufferView":5,
			"componentType":5126,
			"count":340,
			"type":"VEC3"
		},
		{
			"bufferView":6,
			"componentType":5126,
			"count":340,
			"type":"VEC2"
		},
		{
			"bufferView":7,
			"componentType":5123,
			"count":1728,
			"type":"SCALAR"
		},
		{
			"bufferView":8,
			"componentType":5126,
			"count":260,
			"max":[
				1,
				0.6666669845581055,
				0.09000349789857864
			],
			"min":[
				-1,
				-0.6666669845581055,
				-0.09000349789857864
			],
			"type":"VEC3"
		},
		{
			"bufferView":9,
			"componentType":5126,
			"count":260,
			"type":"VEC3"
		},
		{
			"bufferView":10,
			"componentType":5126,
			"count":260,
			"type":"VEC2"
		},
		{
			"bufferView":11,
			"componentType":5126,
			"count":260,
			"type":"VEC2"
		},
		{
			"bufferView":12,
			"componentType":5123,
			"count":588,
			"type":"SCALAR"
		},
		{
			"bufferView":13,
			"componentType":5126,
			"count":4,
			"max":[
				1,
				0,
				1
			],
			"min":[
				-1,
				0,
				-1
			],
			"type":"VEC3"
		},
		{
			"bufferView":14,
			"componentType":5126,
			"count":4,
			"type":"VEC3"
		},
		{
			"bufferView":15,
			"componentType":5126,
			"count":4,
			"type":"VEC2"
		},
		{
			"bufferView":16,
			"componentType":5123,
			"count":6,
			"type":"SCALAR"
		}
	],
	"bufferViews":[
		{
			"buffer":0,
			"byteLength":1596,
			"byteOffset":0,
			"target":34962
		},
		{
			"buffer":0,
			"byteLength":1596,
			"byteOffset":1596,
			"target":34962
		},
		{
			"buffer":0,
			"byteLength":1064,
			"byteOffset":3192,
			"target":34962
		},
		{
			"buffer":0,
			"byteLength":960,
			"byteOffset":4256,
			"target":34963
		},
		{
			"buffer":0,
			"byteLength":4080,
			"byteOffset":5216,
			"target":34962
		},
		{
			"buffer":0,
			"byteLength":4080,
			"byteOffset":9296,
			"target":34962
		},
		{
			"buffer":0,
			"byteLength":2720,
			"byteOffset":13376,
			"target":34962
		},
		{
			"buffer":0,
			"byteLength":3456,
			"byteOffset":16096,
			"target":34963
		},
		{
			"buffer":0,
			"byteLength":3120,
			"byteOffset":19552,
			"target":34962
		},
		{
			"buffer":0,
			"byteLength":3120,
			"byteOffset":22672,
			"target":34962
		},
		{
			"buffer":0,
			"byteLength":2080,
			"byteOffset":25792,
			"target":34962
		},
		{
			"buffer":0,
			"byteLength":2080,
			"byteOffset":27872,
			"target":34962
		},
		{
			"buffer":0,
			"byteLength":1176,
			"byteOffset":29952,
			"target":34963
		},
		{
			"buffer":0,
			"byteLength":48,
			"byteOffset":31128,
			"target":34962
		},
		{
			"buffer":0,
			"byteLength":48,
			"byteOffset":31176,
			"target":34962
		},
		{
			"buffer":0,
			"byteLength":32,
			"byteOffset":31224,
			"target":34962
		},
		{
			"buffer":0,
			"byteLength":12,
			"byteOffset":31256,
			"target":34963
		}
	],
	"samplers":[
		{
			"magFilter":9729,
			"minFilter":9987
		}
	],
	"buffers":[
		{
			"byteLength":31268,
			"uri":"scene.bin"
		}
	]
}
