{
  "accessors": [
    {
      "bufferView": 2,
      "componentType": 5126,
      "count": 8,
      "max": [
        0.6154501438140869,
        6.459822088800138e-06,
        0.7404685020446777
      ],
      "min": [
        -0.6154501438140869,
        -6.501868483610451e-06,
        -0.7404685020446777
      ],
      "type": "VEC3"
    },
    {
      "bufferView": 2,
      "byteOffset": 96,
      "componentType": 5126,
      "count": 8,
      "max": [
        0.0,
        1.0,
        7.210432784177101e-08
      ],
      "min": [
        0.0,
        -1.0,
        1.5320818391728608e-08
      ],
      "type": "VEC3"
    },
    {
      "bufferView": 1,
      "componentType": 5126,
      "count": 8,
      "max": [
        0.49784889817237854,
        0.9983943104743958
      ],
      "min": [
        0.0018172755371779203,
        0.6691705584526062
      ],
      "type": "VEC2"
    },
    {
      "bufferView": 0,
      "componentType": 5125,
      "count": 12,
      "type": "SCALAR"
    },
    {
      "bufferView": 2,
      "byteOffset": 192,
      "componentType": 5126,
      "count": 8,
      "max": [
        0.6154501438140869,
        6.459822088800138e-06,
        0.7404685020446777
      ],
      "min": [
        -0.6154501438140869,
        -6.501868483610451e-06,
        -0.7404685020446777
      ],
      "type": "VEC3"
    },
    {
      "bufferView": 2,
      "byteOffset": 288,
      "componentType": 5126,
      "count": 8,
      "max": [
        0.0,
        1.0,
        7.210432784177101e-08
      ],
      "min": [
        0.0,
        -1.0,
        1.5320818391728608e-08
      ],
      "type": "VEC3"
    },
    {
      "bufferView": 1,
      "byteOffset": 64,
      "componentType": 5126,
      "count": 8,
      "max": [
        0.49784889817237854,
        0.9975352883338928
      ],
      "min": [
        0.2523036301136017,
        0.33561408519744873
      ],
      "type": "VEC2"
    },
    {
      "bufferView": 0,
      "byteOffset": 48,
      "componentType": 5125,
      "count": 12,
      "type": "SCALAR"
    },
    {
      "bufferView": 2,
      "byteOffset": 384,
      "componentType": 5126,
      "count": 8,
      "max": [
        0.6154501438140869,
        6.459822088800138e-06,
        0.7404685020446777
      ],
      "min": [
        -0.6154501438140869,
        -6.501868483610451e-06,
        -0.7404685020446777
      ],
      "type": "VEC3"
    },
    {
      "bufferView": 2,
      "byteOffset": 480,
      "componentType": 5126,
      "count": 8,
      "max": [
        0.0,
        1.0,
        7.210432784177101e-08
      ],
      "min": [
        0.0,
        -1.0,
        1.5320818391728608e-08
      ],
      "type": "VEC3"
    },
    {
      "bufferView": 1,
      "byteOffset": 128,
      "componentType": 5126,
      "count": 8,
      "max": [
        0.7474400401115417,
        0.9975352883338928
      ],
      "min": [
        0.2525354325771332,
        0.33569440245628357
      ],
      "type": "VEC2"
    },
    {
      "bufferView": 0,
      "byteOffset": 96,
      "componentType": 5125,
      "count": 12,
      "type": "SCALAR"
    },
    {
      "bufferView": 2,
      "byteOffset": 576,
      "componentType": 5126,
      "count": 8,
      "max": [
        0.6154501438140869,
        6.459822088800138e-06,
        0.7404685020446777
      ],
      "min": [
        -0.6154501438140869,
        -6.501868483610451e-06,
        -0.7404685020446777
      ],
      "type": "VEC3"
    },
    {
      "bufferView": 2,
      "byteOffset": 672,
      "componentType": 5126,
      "count": 8,
      "max": [
        0.0,
        1.0,
        7.210432784177101e-08
      ],
      "min": [
        0.0,
        -1.0,
        1.5320818391728608e-08
      ],
      "type": "VEC3"
    },
    {
      "bufferView": 1,
      "byteOffset": 192,
      "componentType": 5126,
      "count": 8,
      "max": [
        0.9976407885551453,
        0.9975352883338928
      ],
      "min": [
        0.2525354325771332,
        0.33662813901901245
      ],
      "type": "VEC2"
    },
    {
      "bufferView": 0,
      "byteOffset": 144,
      "componentType": 5125,
      "count": 12,
      "type": "SCALAR"
    },
    {
      "bufferView": 2,
      "byteOffset": 768,
      "componentType": 5126,
      "count": 8,
      "max": [
        0.6154501438140869,
        6.459822088800138e-06,
        0.7404685020446777
      ],
      "min": [
        -0.6154501438140869,
        -6.501868483610451e-06,
        -0.7404685020446777
      ],
      "type": "VEC3"
    },
    {
      "bufferView": 2,
      "byteOffset": 864,
      "componentType": 5126,
      "count": 8,
      "max": [
        0.0,
        1.0,
        7.210432784177101e-08
      ],
      "min": [
        0.0,
        -1.0,
        1.5320818391728608e-08
      ],
      "type": "VEC3"
    },
    {
      "bufferView": 1,
      "byteOffset": 256,
      "componentType": 5126,
      "count": 8,
      "max": [
        0.49784889817237854,
        0.9975352883338928
      ],
      "min": [
        0.0018172755371779203,
        0.0014132857322692871
      ],
      "type": "VEC2"
    },
    {
      "bufferView": 0,
      "byteOffset": 192,
      "componentType": 5125,
      "count": 12,
      "type": "SCALAR"
    },
    {
      "bufferView": 2,
      "byteOffset": 960,
      "componentType": 5126,
      "count": 8,
      "max": [
        0.6154501438140869,
        6.459822088800138e-06,
        0.7404685020446777
      ],
      "min": [
        -0.6154501438140869,
        -6.501868483610451e-06,
        -0.7404685020446777
      ],
      "type": "VEC3"
    },
    {
      "bufferView": 2,
      "byteOffset": 1056,
      "componentType": 5126,
      "count": 8,
      "max": [
        0.0,
        1.0,
        7.210432784177101e-08
      ],
      "min": [
        0.0,
        -1.0,
        1.5320818391728608e-08
      ],
      "type": "VEC3"
    },
    {
      "bufferView": 1,
      "byteOffset": 320,
      "componentType": 5126,
      "count": 8,
      "max": [
        0.4983949661254883,
        0.9975352883338928
      ],
      "min": [
        0.2525354325771332,
        0.0018969480879604816
      ],
      "type": "VEC2"
    },
    {
      "bufferView": 0,
      "byteOffset": 240,
      "componentType": 5125,
      "count": 12,
      "type": "SCALAR"
    },
    {
      "bufferView": 2,
      "byteOffset": 1152,
      "componentType": 5126,
      "count": 8,
      "max": [
        0.6154501438140869,
        6.459822088800138e-06,
        0.7404685020446777
      ],
      "min": [
        -0.6154501438140869,
        -6.501868483610451e-06,
        -0.7404685020446777
      ],
      "type": "VEC3"
    },
    {
      "bufferView": 2,
      "byteOffset": 1248,
      "componentType": 5126,
      "count": 8,
      "max": [
        0.0,
        1.0,
        7.210432784177101e-08
      ],
      "min": [
        0.0,
        -1.0,
        1.5320818391728608e-08
      ],
      "type": "VEC3"
    },
    {
      "bufferView": 1,
      "byteOffset": 384,
      "componentType": 5126,
      "count": 8,
      "max": [
        0.7489842176437378,
        0.9975352883338928
      ],
      "min": [
        0.2525354325771332,
        0.0025996773038059473
      ],
      "type": "VEC2"
    },
    {
      "bufferView": 0,
      "byteOffset": 288,
      "componentType": 5125,
      "count": 12,
      "type": "SCALAR"
    },
    {
      "bufferView": 2,
      "byteOffset": 1344,
      "componentType": 5126,
      "count": 8,
      "max": [
        0.6154501438140869,
        6.459822088800138e-06,
        0.7404685020446777
      ],
      "min": [
        -0.6154501438140869,
        -6.501868483610451e-06,
        -0.7404685020446777
      ],
      "type": "VEC3"
    },
    {
      "bufferView": 2,
      "byteOffset": 1440,
      "componentType": 5126,
      "count": 8,
      "max": [
        0.0,
        1.0,
        7.210432784177101e-08
      ],
      "min": [
        0.0,
        -1.0,
        1.5320818391728608e-08
      ],
      "type": "VEC3"
    },
    {
      "bufferView": 1,
      "byteOffset": 448,
      "componentType": 5126,
      "count": 8,
      "max": [
        0.9985170960426331,
        0.9975352883338928
      ],
      "min": [
        0.2525354325771332,
        0.0015060734003782272
      ],
      "type": "VEC2"
    },
    {
      "bufferView": 0,
      "byteOffset": 336,
      "componentType": 5125,
      "count": 12,
      "type": "SCALAR"
    },
    {
      "bufferView": 2,
      "byteOffset": 1536,
      "componentType": 5126,
      "count": 8,
      "max": [
        0.6154501438140869,
        6.459822088800138e-06,
        0.7404685020446777
      ],
      "min": [
        -0.6154501438140869,
        -6.501868483610451e-06,
        -0.7404685020446777
      ],
      "type": "VEC3"
    },
    {
      "bufferView": 2,
      "byteOffset": 1632,
      "componentType": 5126,
      "count": 8,
      "max": [
        0.0,
        1.0,
        7.210432784177101e-08
      ],
      "min": [
        0.0,
        -1.0,
        1.5320818391728608e-08
      ],
      "type": "VEC3"
    },
    {
      "bufferView": 1,
      "byteOffset": 512,
      "componentType": 5126,
      "count": 8,
      "max": [
        0.49784889817237854,
        0.9975352883338928
      ],
      "min": [
        0.0018172755371779203,
        0.33561405539512634
      ],
      "type": "VEC2"
    },
    {
      "bufferView": 0,
      "byteOffset": 384,
      "componentType": 5125,
      "count": 12,
      "type": "SCALAR"
    },
    {
      "bufferView": 2,
      "byteOffset": 1728,
      "componentType": 5126,
      "count": 8,
      "max": [
        0.6154501438140869,
        6.459822088800138e-06,
        0.7404685020446777
      ],
      "min": [
        -0.6154501438140869,
        -6.501868483610451e-06,
        -0.7404685020446777
      ],
      "type": "VEC3"
    },
    {
      "bufferView": 2,
      "byteOffset": 1824,
      "componentType": 5126,
      "count": 8,
      "max": [
        0.0,
        1.0,
        7.210432784177101e-08
      ],
      "min": [
        0.0,
        -1.0,
        1.5320818391728608e-08
      ],
      "type": "VEC3"
    },
    {
      "bufferView": 1,
      "byteOffset": 576,
      "componentType": 5126,
      "count": 8,
      "max": [
        0.7469243407249451,
        0.9983943104743958
      ],
      "min": [
        0.2525354325771332,
        0.6691705584526062
      ],
      "type": "VEC2"
    },
    {
      "bufferView": 0,
      "byteOffset": 432,
      "componentType": 5125,
      "count": 12,
      "type": "SCALAR"
    },
    {
      "bufferView": 2,
      "byteOffset": 1920,
      "componentType": 5126,
      "count": 8,
      "max": [
        0.6154501438140869,
        6.459822088800138e-06,
        0.7404685020446777
      ],
      "min": [
        -0.6154501438140869,
        -6.501868483610451e-06,
        -0.7404685020446777
      ],
      "type": "VEC3"
    },
    {
      "bufferView": 2,
      "byteOffset": 2016,
      "componentType": 5126,
      "count": 8,
      "max": [
        0.0,
        1.0,
        7.210432784177101e-08
      ],
      "min": [
        0.0,
        -1.0,
        1.5320818391728608e-08
      ],
      "type": "VEC3"
    },
    {
      "bufferView": 1,
      "byteOffset": 640,
      "componentType": 5126,
      "count": 8,
      "max": [
        0.9972004294395447,
        0.9983943104743958
      ],
      "min": [
        0.2525354325771332,
        0.6691705584526062
      ],
      "type": "VEC2"
    },
    {
      "bufferView": 0,
      "byteOffset": 480,
      "componentType": 5125,
      "count": 12,
      "type": "SCALAR"
    },
    {
      "bufferView": 2,
      "byteOffset": 2112,
      "componentType": 5126,
      "count": 8,
      "max": [
        0.6154501438140869,
        6.459822088800138e-06,
        0.7404685020446777
      ],
      "min": [
        -0.6154501438140869,
        -6.501868483610451e-06,
        -0.7404685020446777
      ],
      "type": "VEC3"
    },
    {
      "bufferView": 2,
      "byteOffset": 2208,
      "componentType": 5126,
      "count": 8,
      "max": [
        0.0,
        1.0,
        7.210432784177101e-08
      ],
      "min": [
        0.0,
        -1.0,
        1.5320818391728608e-08
      ],
      "type": "VEC3"
    },
    {
      "bufferView": 1,
      "byteOffset": 704,
      "componentType": 5126,
      "count": 8,
      "max": [
        0.49784889817237854,
        0.997767448425293
      ],
      "min": [
        0.2523036301136017,
        0.6691705584526062
      ],
      "type": "VEC2"
    },
    {
      "bufferView": 0,
      "byteOffset": 528,
      "componentType": 5125,
      "count": 12,
      "type": "SCALAR"
    }
  ],
  "asset": {
    "extras": {
      "author": "FrodoUndead (https://sketchfab.com/FrodoUndead)",
      "license": "CC-BY-4.0 (http://creativecommons.org/licenses/by/4.0/)",
      "source": "https://sketchfab.com/3d-models/old-polaroid-photos-aa40155807874f98aff43e67605f039c",
      "title": "Old Polaroid Photos"
    },
    "generator": "Sketchfab-15.17.0",
    "version": "2.0"
  },
  "bufferViews": [
    {
      "buffer": 0,
      "byteLength": 576,
      "name": "floatBufferViews",
      "target": 34963
    },
    {
      "buffer": 0,
      "byteLength": 768,
      "byteOffset": 576,
      "byteStride": 8,
      "name": "floatBufferViews",
      "target": 34962
    },
    {
      "buffer": 0,
      "byteLength": 2304,
      "byteOffset": 1344,
      "byteStride": 12,
      "name": "floatBufferViews",
      "target": 34962
    }
  ],
  "buffers": [
    {
      "byteLength": 3648,
      "uri": "scene.bin"
    }
  ],
  "extensionsUsed": [
    "KHR_materials_specular"
  ],
  "images": [
    {
      "uri": "textures/Material.001_baseColor.png"
    },
    {
      "uri": "textures/Material.001_specularf0.png"
    }
  ],
  "materials": [
    {
      "extensions": {
        "KHR_materials_specular": {
          "specularColorFactor": [
            1.0,
            1.0,
            1.0
          ],
          "specularFactor": 1.0,
          "specularTexture": {
            "index": 1
          }
        }
      },
      "name": "Material.001",
      "pbrMetallicRoughness": {
        "baseColorTexture": {
          "index": 0
        },
        "metallicFactor": 0.0,
        "roughnessFactor": 0.5043824895466348
      }
    }
  ],
  "meshes": [
    {
      "name": "Object_0",
      "primitives": [
        {
          "attributes": {
            "NORMAL": 1,
            "POSITION": 0,
            "TEXCOORD_0": 2
          },
          "indices": 3,
          "material": 0,
          "mode": 4
        }
      ]
    },
    {
      "name": "Object_1",
      "primitives": [
        {
          "attributes": {
            "NORMAL": 5,
            "POSITION": 4,
            "TEXCOORD_0": 6
          },
          "indices": 7,
          "material": 0,
          "mode": 4
        }
      ]
    },
    {
      "name": "Object_2",
      "primitives": [
        {
          "attributes": {
            "NORMAL": 9,
            "POSITION": 8,
            "TEXCOORD_0": 10
          },
          "indices": 11,
          "material": 0,
          "mode": 4
        }
      ]
    },
    {
      "name": "Object_3",
      "primitives": [
        {
          "attributes": {
            "NORMAL": 13,
            "POSITION": 12,
            "TEXCOORD_0": 14
          },
          "indices": 15,
          "material": 0,
          "mode": 4
        }
      ]
    },
    {
      "name": "Object_4",
      "primitives": [
        {
          "attributes": {
            "NORMAL": 17,
            "POSITION": 16,
            "TEXCOORD_0": 18
          },
          "indices": 19,
          "material": 0,
          "mode": 4
        }
      ]
    },
    {
      "name": "Object_5",
      "primitives": [
        {
          "attributes": {
            "NORMAL": 21,
            "POSITION": 20,
            "TEXCOORD_0": 22
          },
          "indices": 23,
          "material": 0,
          "mode": 4
        }
      ]
    },
    {
      "name": "Object_6",
      "primitives": [
        {
          "attributes": {
            "NORMAL": 25,
            "POSITION": 24,
            "TEXCOORD_0": 26
          },
          "indices": 27,
          "material": 0,
          "mode": 4
        }
      ]
    },
    {
      "name": "Object_7",
      "primitives": [
        {
          "attributes": {
            "NORMAL": 29,
            "POSITION": 28,
            "TEXCOORD_0": 30
          },
          "indices": 31,
          "material": 0,
          "mode": 4
        }
      ]
    },
    {
      "name": "Object_8",
      "primitives": [
        {
          "attributes": {
            "NORMAL": 33,
            "POSITION": 32,
            "TEXCOORD_0": 34
          },
          "indices": 35,
          "material": 0,
          "mode": 4
        }
      ]
    },
    {
      "name": "Object_9",
      "primitives": [
        {
          "attributes": {
            "NORMAL": 37,
            "POSITION": 36,
            "TEXCOORD_0": 38
          },
          "indices": 39,
          "material": 0,
          "mode": 4
        }
      ]
    },
    {
      "name": "Object_10",
      "primitives": [
        {
          "attributes": {
            "NORMAL": 41,
            "POSITION": 40,
            "TEXCOORD_0": 42
          },
          "indices": 43,
          "material": 0,
          "mode": 4
        }
      ]
    },
    {
      "name": "Object_11",
      "primitives": [
        {
          "attributes": {
            "NORMAL": 45,
            "POSITION": 44,
            "TEXCOORD_0": 46
          },
          "indices": 47,
          "material": 0,
          "mode": 4
        }
      ]
    }
  ],
  "nodes": [
    {
      "children": [
        1
      ],
      "matrix": [
        1.0,
        0.0,
        0.0,
        0.0,
        0.0,
        2.220446049250313e-16,
        -1.0,
        0.0,
        0.0,
        1.0,
        2.220446049250313e-16,
        0.0,
        0.0,
        0.0,
        0.0,
        1.0
      ],
      "name": "Sketchfab_model"
    },
    {
      "children": [
        2
      ],
      "name": "root"
    },
    {
      "children": [
        3,
        5,
        7,
        9,
        11,
        13,
        15,
        17,
        19,
        21,
        23,
        25
      ],
      "matrix": [
        1.0,
        0.0,
        0.0,
        0.0,
        0.0,
        2.220446049250313e-16,
        1.0,
        0.0,
        0.0,
        -1.0,
        2.220446049250313e-16,
        0.0,
        0.0,
        0.0,
        0.0,
        1.0
      ],
      "name": "GLTF_SceneRootNode"
    },
    {
      "children": [
        4
      ],
      "matrix": [
        1.0,
        0.0,
        0.0,
        0.0,
        0.0,
        0.0,
        1.0,
        0.0,
        0.0,
        -1.0,
        0.0,
        0.0,
        -1.8767181634902954,
        3.196356773376465,
        -0.06837065517902374,
        1.0
      ],
      "name": "Plane_1"
    },
    {
      "mesh": 0,
      "name": "Object_4"
    },
    {
      "children": [
        6
      ],
      "matrix": [
        1.0,
        0.0,
        0.0,
        0.0,
        0.0,
        0.0,
        1.0,
        0.0,
        0.0,
        -1.0,
        0.0,
        0.0,
        -0.4488348960876465,
        1.4982757568359375,
        -0.06837065517902374,
        1.0
      ],
      "name": "Plane.001_2"
    },
    {
      "mesh": 1,
      "name": "Object_6"
    },
    {
      "children": [
        8
      ],
      "matrix": [
        1.0,
        0.0,
        0.0,
        0.0,
        0.0,
        0.0,
        1.0,
        0.0,
        0.0,
        -1.0,
        0.0,
        0.0,
        0.997704267501831,
        1.4982757568359375,
        -0.06837065517902374,
        1.0
      ],
      "name": "Plane.002_3"
    },
    {
      "mesh": 2,
      "name": "Object_8"
    },
    {
      "children": [
        10
      ],
      "matrix": [
        1.0,
        0.0,
        0.0,
        0.0,
        0.0,
        0.0,
        1.0,
        0.0,
        0.0,
        -1.0,
        0.0,
        0.0,
        2.4252099990844727,
        1.4982757568359375,
        -0.06837065517902374,
        1.0
      ],
      "name": "Plane.003_4"
    },
    {
      "mesh": 3,
      "name": "Object_10"
    },
    {
      "children": [
        12
      ],
      "matrix": [
        1.0,
        0.0,
        0.0,
        0.0,
        0.0,
        0.0,
        1.0,
        0.0,
        0.0,
        -1.0,
        0.0,
        0.0,
        -1.876340627670288,
        -0.3479647636413574,
        -0.06837065517902374,
        1.0
      ],
      "name": "Plane.004_5"
    },
    {
      "mesh": 4,
      "name": "Object_12"
    },
    {
      "children": [
        14
      ],
      "matrix": [
        1.0,
        0.0,
        0.0,
        0.0,
        0.0,
        0.0,
        1.0,
        0.0,
        0.0,
        -1.0,
        0.0,
        0.0,
        -0.4488348960876465,
        -0.3479647636413574,
        -0.06837065517902374,
        1.0
      ],
      "name": "Plane.005_6"
    },
    {
      "mesh": 5,
      "name": "Object_14"
    },
    {
      "children": [
        16
      ],
      "matrix": [
        1.0,
        0.0,
        0.0,
        0.0,
        0.0,
        0.0,
        1.0,
        0.0,
        0.0,
        -1.0,
        0.0,
        0.0,
        0.997704267501831,
        -0.3479647636413574,
        -0.06837065517902374,
        1.0
      ],
      "name": "Plane.006_7"
    },
    {
      "mesh": 6,
      "name": "Object_16"
    },
    {
      "children": [
        18
      ],
      "matrix": [
        1.0,
        0.0,
        0.0,
        0.0,
        0.0,
        0.0,
        1.0,
        0.0,
        0.0,
        -1.0,
        0.0,
        0.0,
        2.4252099990844727,
        -0.3479647636413574,
        -0.06837065517902374,
        1.0
      ],
      "name": "Plane.007_8"
    },
    {
      "mesh": 7,
      "name": "Object_18"
    },
    {
      "children": [
        20
      ],
      "matrix": [
        1.0,
        0.0,
        0.0,
        0.0,
        0.0,
        0.0,
        1.0,
        0.0,
        0.0,
        -1.0,
        0.0,
        0.0,
        -1.876340627670288,
        1.4968122243881226,
        -0.06837065517902374,
        1.0
      ],
      "name": "Plane.008_9"
    },
    {
      "mesh": 8,
      "name": "Object_20"
    },
    {
      "children": [
        22
      ],
      "matrix": [
        1.0,
        0.0,
        0.0,
        0.0,
        0.0,
        0.0,
        1.0,
        0.0,
        0.0,
        -1.0,
        0.0,
        0.0,
        0.997704267501831,
        3.211282253265381,
        -0.06837065517902374,
        1.0
      ],
      "name": "Plane.010_10"
    },
    {
      "mesh": 9,
      "name": "Object_22"
    },
    {
      "children": [
        24
      ],
      "matrix": [
        1.0,
        0.0,
        0.0,
        0.0,
        0.0,
        0.0,
        1.0,
        0.0,
        0.0,
        -1.0,
        0.0,
        0.0,
        2.4252099990844727,
        3.211282253265381,
        -0.06837065517902374,
        1.0
      ],
      "name": "Plane.011_11"
    },
    {
      "mesh": 10,
      "name": "Object_24"
    },
    {
      "children": [
        26
      ],
      "matrix": [
        1.0,
        0.0,
        0.0,
        0.0,
        0.0,
        0.0,
        1.0,
        0.0,
        0.0,
        -1.0,
        0.0,
        0.0,
        -0.4488348960876465,
        3.203354835510254,
        -0.06837065517902374,
        1.0
      ],
      "name": "Plane.009_12"
    },
    {
      "mesh": 11,
      "name": "Object_26"
    }
  ],
  "samplers": [
    {
      "magFilter": 9729,
      "minFilter": 9987,
      "wrapS": 10497,
      "wrapT": 10497
    }
  ],
  "scene": 0,
  "scenes": [
    {
      "name": "Sketchfab_Scene",
      "nodes": [
        0
      ]
    }
  ],
  "textures": [
    {
      "sampler": 0,
      "source": 0
    },
    {
      "sampler": 0,
      "source": 1
    }
  ]
}
