{
	"asset":{
		"generator":"Khronos glTF Blender I/O v4.1.63",
		"version":"2.0"
	},
	"extensionsUsed":[
		"KHR_materials_emissive_strength"
	],
	"scene":0,
	"scenes":[
		{
			"name":"Scene",
			"nodes":[
				27,
				28
			]
		}
	],
	"nodes":[
		{
			"mesh":0,
			"name":"Object_7",
			"translation":[
				3.814697265625e-06,
				0,
				0
			]
		},
		{
			"mesh":1,
			"name":"Object_8",
			"translation":[
				3.814697265625e-06,
				0,
				0
			]
		},
		{
			"children":[
				0,
				1
			],
			"name":"Cube.001_3",
			"rotation":[
				-0.3826834559440613,
				0,
				0,
				0.9238795638084412
			],
			"scale":[
				0.7570499181747437,
				0.7570499777793884,
				0.7570499777793884
			],
			"translation":[
				-16.57794761657715,
				-10.6724214553833,
				9.98216724395752
			]
		},
		{
			"mesh":2,
			"name":"Object_10"
		},
		{
			"mesh":3,
			"name":"Object_11"
		},
		{
			"children":[
				3,
				4
			],
			"name":"Cube.002_4",
			"rotation":[
				-0.3826834559440613,
				0,
				0,
				0.9238795638084412
			],
			"scale":[
				0.7570499181747437,
				0.7570499777793884,
				0.7570499777793884
			],
			"translation":[
				0,
				-10.6724214553833,
				9.98216724395752
			]
		},
		{
			"mesh":4,
			"name":"Object_13"
		},
		{
			"mesh":5,
			"name":"Object_14"
		},
		{
			"children":[
				6,
				7
			],
			"name":"Cube.003_5",
			"rotation":[
				-0.3826834559440613,
				0,
				0,
				0.9238795638084412
			],
			"scale":[
				0.7570499181747437,
				0.7570499777793884,
				0.7570499777793884
			],
			"translation":[
				-8.288968086242676,
				-10.6724214553833,
				9.98216724395752
			]
		},
		{
			"mesh":6,
			"name":"Object_16"
		},
		{
			"mesh":7,
			"name":"Object_17"
		},
		{
			"children":[
				9,
				10
			],
			"name":"Cube.004_6",
			"rotation":[
				-0.3826834559440613,
				0,
				0,
				0.9238795638084412
			],
			"scale":[
				0.7570499181747437,
				0.7570499777793884,
				0.7570499777793884
			],
			"translation":[
				15.790452003479004,
				-10.6724214553833,
				9.98216724395752
			]
		},
		{
			"mesh":8,
			"name":"Object_19"
		},
		{
			"mesh":9,
			"name":"Object_20"
		},
		{
			"children":[
				12,
				13
			],
			"name":"Cube.005_7",
			"rotation":[
				-0.3826834559440613,
				0,
				0,
				0.9238795638084412
			],
			"scale":[
				0.7570499181747437,
				0.7570499777793884,
				0.7570499777793884
			],
			"translation":[
				8.288962364196777,
				-10.6724214553833,
				9.98216724395752
			]
		},
		{
			"mesh":10,
			"name":"Object_24"
		},
		{
			"mesh":11,
			"name":"Object_25"
		},
		{
			"children":[
				15,
				16
			],
			"name":"Cube.006_9",
			"translation":[
				0,
				-12.210906982421875,
				-6.922694206237793
			]
		},
		{
			"mesh":12,
			"name":"Object_27"
		},
		{
			"children":[
				18
			],
			"name":"Cube_10",
			"scale":[
				0.12382005155086517,
				0.7827744483947754,
				0.7827744483947754
			],
			"translation":[
				1.2957483530044556,
				-10.961906433105469,
				-6.922689914703369
			]
		},
		{
			"mesh":13,
			"name":"Object_22"
		},
		{
			"children":[
				20
			],
			"name":"Cylinder_8",
			"scale":[
				0.8544144630432129,
				23.945087432861328,
				0.8544144630432129
			],
			"translation":[
				0,
				-14.432951927185059,
				-6.922689914703369
			]
		},
		{
			"mesh":14,
			"name":"Object_4"
		},
		{
			"mesh":15,
			"name":"Object_5"
		},
		{
			"children":[
				22,
				23
			],
			"name":"Plane.002_2",
			"rotation":[
				0.70710688829422,
				0,
				0,
				0.7071066498756409
			],
			"scale":[
				16.577926635742188,
				0.3200830817222595,
				9.884625434875488
			]
		},
		{
			"children":[
				2,
				5,
				8,
				11,
				14,
				17,
				19,
				21,
				24
			],
			"name":"GLTF_SceneRootNode",
			"rotation":[
				0.70710688829422,
				0,
				0,
				0.7071066498756409
			]
		},
		{
			"children":[
				25
			],
			"name":"root"
		},
		{
			"children":[
				26
			],
			"name":"Sketchfab_model",
			"rotation":[
				-0.70710688829422,
				0,
				0,
				0.7071066498756409
			]
		},
		{
			"mesh":16,
			"name":"billboard_surface",
			"scale":[
				16.589645385742188,
				9.979523658752441,
				0.20681607723236084
			],
			"translation":[
				-0.39021578431129456,
				0,
				0.46813738346099854
			]
		}
	],
	"materials":[
		{
			"doubleSided":true,
			"name":"Material.001",
			"pbrMetallicRoughness":{
				"baseColorFactor":[
					0,
					0,
					0,
					1
				],
				"metallicFactor":0.3885726034641266,
				"roughnessFactor":0.5
			}
		},
		{
			"doubleSided":true,
			"emissiveFactor":[
				1,
				0.6547979116439819,
				0.048259343951940536
			],
			"extensions":{
				"KHR_materials_emissive_strength":{
					"emissiveStrength":5.470492839813232
				}
			},
			"name":"material",
			"pbrMetallicRoughness":{
				"baseColorFactor":[
					0.7732589840888977,
					1,
					0.24034899473190308,
					1
				],
				"metallicFactor":0,
				"roughnessFactor":0.5
			}
		},
		{
			"doubleSided":true,
			"name":"Material.002",
			"pbrMetallicRoughness":{
				"baseColorFactor":[
					0,
					0,
					0,
					1
				],
				"metallicFactor":0,
				"roughnessFactor":0.5
			}
		},
		{
			"doubleSided":true,
			"name":"Material.003",
			"pbrMetallicRoughness":{
				"baseColorFactor":[
					0,
					0,
					0,
					1
				],
				"metallicFactor":0,
				"roughnessFactor":0.5
			}
		},
		{
			"doubleSided":true,
			"name":"Material.004",
			"pbrMetallicRoughness":{
				"baseColorFactor":[
					0,
					0,
					0,
					1
				],
				"metallicFactor":0,
				"roughnessFactor":0.5
			}
		},
		{
			"doubleSided":true,
			"name":"Material.005",
			"pbrMetallicRoughness":{
				"baseColorFactor":[
					0,
					0,
					0,
					1
				],
				"metallicFactor":0,
				"roughnessFactor":0.5
			}
		},
		{
			"doubleSided":true,
			"name":"material_0",
			"pbrMetallicRoughness":{
				"metallicFactor":0,
				"roughnessFactor":0.6000000238418579
			}
		},
		{
			"doubleSided":true,
			"emissiveFactor":[
				0.4000000059604645,
				0.4000000059604645,
				0.4000000059604645
			],
			"emissiveTexture":{
				"index":0
			},
			"name":"imagem",
			"pbrMetallicRoughness":{
				"baseColorTexture":{
					"index":1
				},
				"roughnessFactor":0.22400067746639252
			}
		}
	],
	"meshes":[
		{
			"name":"Object_2",
			"primitives":[
				{
					"attributes":{
						"POSITION":0,
						"NORMAL":1,
						"TEXCOORD_0":2
					},
					"indices":3,
					"material":0
				}
			]
		},
		{
			"name":"Object_3",
			"primitives":[
				{
					"attributes":{
						"POSITION":4,
						"NORMAL":5,
						"TEXCOORD_0":6
					},
					"indices":7,
					"material":1
				}
			]
		},
		{
			"name":"Object_4",
			"primitives":[
				{
					"attributes":{
						"POSITION":8,
						"NORMAL":9,
						"TEXCOORD_0":10
					},
					"indices":3,
					"material":2
				}
			]
		},
		{
			"name":"Object_5",
			"primitives":[
				{
					"attributes":{
						"POSITION":11,
						"NORMAL":12,
						"TEXCOORD_0":13
					},
					"indices":7,
					"material":1
				}
			]
		},
		{
			"name":"Object_6",
			"primitives":[
				{
					"attributes":{
						"POSITION":14,
						"NORMAL":15,
						"TEXCOORD_0":16
					},
					"indices":3,
					"material":3
				}
			]
		},
		{
			"name":"Object_7",
			"primitives":[
				{
					"attributes":{
						"POSITION":17,
						"NORMAL":18,
						"TEXCOORD_0":19
					},
					"indices":7,
					"material":1
				}
			]
		},
		{
			"name":"Object_8",
			"primitives":[
				{
					"attributes":{
						"POSITION":20,
						"NORMAL":21,
						"TEXCOORD_0":22
					},
					"indices":3,
					"material":4
				}
			]
		},
		{
			"name":"Object_9",
			"primitives":[
				{
					"attributes":{
						"POSITION":23,
						"NORMAL":24,
						"TEXCOORD_0":25
					},
					"indices":7,
					"material":1
				}
			]
		},
		{
			"name":"Object_10",
			"primitives":[
				{
					"attributes":{
						"POSITION":26,
						"NORMAL":27,
						"TEXCOORD_0":28
					},
					"indices":3,
					"material":5
				}
			]
		},
		{
			"name":"Object_11",
			"primitives":[
				{
					"attributes":{
						"POSITION":29,
						"NORMAL":30,
						"TEXCOORD_0":31
					},
					"indices":7,
					"material":1
				}
			]
		},
		{
			"name":"Object_13",
			"primitives":[
				{
					"attributes":{
						"POSITION":32,
						"NORMAL":33,
						"TEXCOORD_0":34
					},
					"indices":35,
					"material":0
				}
			]
		},
		{
			"name":"Object_14",
			"primitives":[
				{
					"attributes":{
						"POSITION":36,
						"NORMAL":37,
						"TEXCOORD_0":38
					},
					"indices":39,
					"material":6
				}
			]
		},
		{
			"name":"Object_15",
			"primitives":[
				{
					"attributes":{
						"POSITION":40,
						"NORMAL":41,
						"TEXCOORD_0":42
					},
					"indices":43,
					"material":0
				}
			]
		},
		{
			"name":"Object_12",
			"primitives":[
				{
					"attributes":{
						"POSITION":44,
						"NORMAL":45,
						"TEXCOORD_0":46
					},
					"indices":47,
					"material":0
				}
			]
		},
		{
			"name":"Object_0",
			"primitives":[
				{
					"attributes":{
						"POSITION":48,
						"NORMAL":49,
						"TEXCOORD_0":50
					},
					"indices":51,
					"material":0
				}
			]
		},
		{
			"name":"Object_1",
			"primitives":[
				{
					"attributes":{
						"POSITION":52,
						"NORMAL":53,
						"TEXCOORD_0":54
					},
					"indices":55,
					"material":7
				}
			]
		},
		{
			"name":"Cube.001",
			"primitives":[
				{
					"attributes":{
						"POSITION":56,
						"NORMAL":57,
						"TEXCOORD_0":58
					},
					"indices":59
				}
			]
		}
	],
	"textures":[
		{
			"sampler":0,
			"source":0
		},
		{
			"sampler":0,
			"source":0
		}
	],
	"images":[
		{
			"mimeType":"image/png",
			"name":"imagem_baseColor",
			"uri":"imagem_baseColor.png"
		}
	],
	"accessors":[
		{
			"bufferView":0,
			"componentType":5126,
			"count":96,
			"max":[
				1,
				1.4406481981277466,
				0.011578291654586792
			],
			"min":[
				-1,
				0.9648680686950684,
				-2.7434725761413574
			],
			"type":"VEC3"
		},
		{
			"bufferView":1,
			"componentType":5126,
			"count":96,
			"type":"VEC3"
		},
		{
			"bufferView":2,
			"componentType":5126,
			"count":96,
			"type":"VEC2"
		},
		{
			"bufferView":3,
			"componentType":5123,
			"count":192,
			"type":"SCALAR"
		},
		{
			"bufferView":4,
			"componentType":5126,
			"count":6,
			"max":[
				0.760095477104187,
				1.3848352432250977,
				-0.2283262312412262
			],
			"min":[
				-0.760095477104187,
				1.3848352432250977,
				-2.503567934036255
			],
			"type":"VEC3"
		},
		{
			"bufferView":5,
			"componentType":5126,
			"count":6,
			"type":"VEC3"
		},
		{
			"bufferView":6,
			"componentType":5126,
			"count":6,
			"type":"VEC2"
		},
		{
			"bufferView":7,
			"componentType":5123,
			"count":12,
			"type":"SCALAR"
		},
		{
			"bufferView":8,
			"componentType":5126,
			"count":96,
			"max":[
				1,
				1.4406481981277466,
				0.011578291654586792
			],
			"min":[
				-1,
				0.9648680686950684,
				-2.7434725761413574
			],
			"type":"VEC3"
		},
		{
			"bufferView":9,
			"componentType":5126,
			"count":96,
			"type":"VEC3"
		},
		{
			"bufferView":10,
			"componentType":5126,
			"count":96,
			"type":"VEC2"
		},
		{
			"bufferView":11,
			"componentType":5126,
			"count":6,
			"max":[
				0.760095477104187,
				1.3848352432250977,
				-0.2283262312412262
			],
			"min":[
				-0.760095477104187,
				1.3848352432250977,
				-2.503567934036255
			],
			"type":"VEC3"
		},
		{
			"bufferView":12,
			"componentType":5126,
			"count":6,
			"type":"VEC3"
		},
		{
			"bufferView":13,
			"componentType":5126,
			"count":6,
			"type":"VEC2"
		},
		{
			"bufferView":14,
			"componentType":5126,
			"count":96,
			"max":[
				1,
				1.4406481981277466,
				0.011578291654586792
			],
			"min":[
				-1,
				0.9648680686950684,
				-2.7434725761413574
			],
			"type":"VEC3"
		},
		{
			"bufferView":15,
			"componentType":5126,
			"count":96,
			"type":"VEC3"
		},
		{
			"bufferView":16,
			"componentType":5126,
			"count":96,
			"type":"VEC2"
		},
		{
			"bufferView":17,
			"componentType":5126,
			"count":6,
			"max":[
				0.760095477104187,
				1.3848352432250977,
				-0.2283262312412262
			],
			"min":[
				-0.760095477104187,
				1.3848352432250977,
				-2.503567934036255
			],
			"type":"VEC3"
		},
		{
			"bufferView":18,
			"componentType":5126,
			"count":6,
			"type":"VEC3"
		},
		{
			"bufferView":19,
			"componentType":5126,
			"count":6,
			"type":"VEC2"
		},
		{
			"bufferView":20,
			"componentType":5126,
			"count":96,
			"max":[
				1,
				1.4406481981277466,
				0.011578291654586792
			],
			"min":[
				-1,
				0.9648680686950684,
				-2.7434725761413574
			],
			"type":"VEC3"
		},
		{
			"bufferView":21,
			"componentType":5126,
			"count":96,
			"type":"VEC3"
		},
		{
			"bufferView":22,
			"componentType":5126,
			"count":96,
			"type":"VEC2"
		},
		{
			"bufferView":23,
			"componentType":5126,
			"count":6,
			"max":[
				0.760095477104187,
				1.3848352432250977,
				-0.2283262312412262
			],
			"min":[
				-0.760095477104187,
				1.3848352432250977,
				-2.503567934036255
			],
			"type":"VEC3"
		},
		{
			"bufferView":24,
			"componentType":5126,
			"count":6,
			"type":"VEC3"
		},
		{
			"bufferView":25,
			"componentType":5126,
			"count":6,
			"type":"VEC2"
		},
		{
			"bufferView":26,
			"componentType":5126,
			"count":96,
			"max":[
				1,
				1.4406481981277466,
				0.011578291654586792
			],
			"min":[
				-1,
				0.9648680686950684,
				-2.7434725761413574
			],
			"type":"VEC3"
		},
		{
			"bufferView":27,
			"componentType":5126,
			"count":96,
			"type":"VEC3"
		},
		{
			"bufferView":28,
			"componentType":5126,
			"count":96,
			"type":"VEC2"
		},
		{
			"bufferView":29,
			"componentType":5126,
			"count":6,
			"max":[
				0.760095477104187,
				1.3848352432250977,
				-0.2283262312412262
			],
			"min":[
				-0.760095477104187,
				1.3848352432250977,
				-2.503567934036255
			],
			"type":"VEC3"
		},
		{
			"bufferView":30,
			"componentType":5126,
			"count":6,
			"type":"VEC3"
		},
		{
			"bufferView":31,
			"componentType":5126,
			"count":6,
			"type":"VEC2"
		},
		{
			"bufferView":32,
			"componentType":5126,
			"count":544,
			"max":[
				20.67311668395996,
				0.427856981754303,
				13.396614074707031
			],
			"min":[
				-21.733274459838867,
				-0.07710003107786179,
				-2.815751314163208
			],
			"type":"VEC3"
		},
		{
			"bufferView":33,
			"componentType":5126,
			"count":544,
			"type":"VEC3"
		},
		{
			"bufferView":34,
			"componentType":5126,
			"count":544,
			"type":"VEC2"
		},
		{
			"bufferView":35,
			"componentType":5123,
			"count":1254,
			"type":"SCALAR"
		},
		{
			"bufferView":36,
			"componentType":5126,
			"count":22,
			"max":[
				2.355429172515869,
				0.42785581946372986,
				0.8696496486663818
			],
			"min":[
				0.305711030960083,
				-0.07710003107786179,
				-0.9110221862792969
			],
			"type":"VEC3"
		},
		{
			"bufferView":37,
			"componentType":5126,
			"count":22,
			"type":"VEC3"
		},
		{
			"bufferView":38,
			"componentType":5126,
			"count":22,
			"type":"VEC2"
		},
		{
			"bufferView":39,
			"componentType":5123,
			"count":42,
			"type":"SCALAR"
		},
		{
			"bufferView":40,
			"componentType":5126,
			"count":874,
			"max":[
				1,
				1.2295277118682861,
				1
			],
			"min":[
				-7.2624101638793945,
				-44.157379150390625,
				-1
			],
			"type":"VEC3"
		},
		{
			"bufferView":41,
			"componentType":5126,
			"count":874,
			"type":"VEC3"
		},
		{
			"bufferView":42,
			"componentType":5126,
			"count":874,
			"type":"VEC2"
		},
		{
			"bufferView":43,
			"componentType":5123,
			"count":2148,
			"type":"SCALAR"
		},
		{
			"bufferView":44,
			"componentType":5126,
			"count":130,
			"max":[
				1.1572836637496948,
				0.7848728895187378,
				1.1572856903076172
			],
			"min":[
				-1.1572836637496948,
				-1.2985637187957764,
				-1.157281756401062
			],
			"type":"VEC3"
		},
		{
			"bufferView":45,
			"componentType":5126,
			"count":130,
			"type":"VEC3"
		},
		{
			"bufferView":46,
			"componentType":5126,
			"count":130,
			"type":"VEC2"
		},
		{
			"bufferView":47,
			"componentType":5123,
			"count":372,
			"type":"SCALAR"
		},
		{
			"bufferView":48,
			"componentType":5126,
			"count":1638,
			"max":[
				1.0326908826828003,
				27.754566192626953,
				1.327756404876709
			],
			"min":[
				-1.0826908349990845,
				-23.144392013549805,
				-1.0815871953964233
			],
			"type":"VEC3"
		},
		{
			"bufferView":49,
			"componentType":5126,
			"count":1638,
			"type":"VEC3"
		},
		{
			"bufferView":50,
			"componentType":5126,
			"count":1638,
			"type":"VEC2"
		},
		{
			"bufferView":51,
			"componentType":5123,
			"count":3438,
			"type":"SCALAR"
		},
		{
			"bufferView":52,
			"componentType":5126,
			"count":20,
			"max":[
				0.9750000238418579,
				0.6688923835754395,
				1
			],
			"min":[
				-1.024999976158142,
				0.6688923835754395,
				-1
			],
			"type":"VEC3"
		},
		{
			"bufferView":53,
			"componentType":5126,
			"count":20,
			"type":"VEC3"
		},
		{
			"bufferView":54,
			"componentType":5126,
			"count":20,
			"type":"VEC2"
		},
		{
			"bufferView":55,
			"componentType":5123,
			"count":54,
			"type":"SCALAR"
		},
		{
			"bufferView":56,
			"componentType":5126,
			"count":24,
			"max":[
				1,
				1,
				1
			],
			"min":[
				-1,
				-1,
				-1
			],
			"type":"VEC3"
		},
		{
			"bufferView":57,
			"componentType":5126,
			"count":24,
			"type":"VEC3"
		},
		{
			"bufferView":58,
			"componentType":5126,
			"count":24,
			"type":"VEC2"
		},
		{
			"bufferView":59,
			"componentType":5123,
			"count":36,
			"type":"SCALAR"
		}
	],
	"bufferViews":[
		{
			"buffer":0,
			"byteLength":1152,
			"byteOffset":0,
			"target":34962
		},
		{
			"buffer":0,
			"byteLength":1152,
			"byteOffset":1152,
			"target":34962
		},
		{
			"buffer":0,
			"byteLength":768,
			"byteOffset":2304,
			"target":34962
		},
		{
			"buffer":0,
			"byteLength":384,
			"byteOffset":3072,
			"target":34963
		},
		{
			"buffer":0,
			"byteLength":72,
			"byteOffset":3456,
			"target":34962
		},
		{
			"buffer":0,
			"byteLength":72,
			"byteOffset":3528,
			"target":34962
		},
		{
			"buffer":0,
			"byteLength":48,
			"byteOffset":3600,
			"target":34962
		},
		{
			"buffer":0,
			"byteLength":24,
			"byteOffset":3648,
			"target":34963
		},
		{
			"buffer":0,
			"byteLength":1152,
			"byteOffset":3672,
			"target":34962
		},
		{
			"buffer":0,
			"byteLength":1152,
			"byteOffset":4824,
			"target":34962
		},
		{
			"buffer":0,
			"byteLength":768,
			"byteOffset":5976,
			"target":34962
		},
		{
			"buffer":0,
			"byteLength":72,
			"byteOffset":6744,
			"target":34962
		},
		{
			"buffer":0,
			"byteLength":72,
			"byteOffset":6816,
			"target":34962
		},
		{
			"buffer":0,
			"byteLength":48,
			"byteOffset":6888,
			"target":34962
		},
		{
			"buffer":0,
			"byteLength":1152,
			"byteOffset":6936,
			"target":34962
		},
		{
			"buffer":0,
			"byteLength":1152,
			"byteOffset":8088,
			"target":34962
		},
		{
			"buffer":0,
			"byteLength":768,
			"byteOffset":9240,
			"target":34962
		},
		{
			"buffer":0,
			"byteLength":72,
			"byteOffset":10008,
			"target":34962
		},
		{
			"buffer":0,
			"byteLength":72,
			"byteOffset":10080,
			"target":34962
		},
		{
			"buffer":0,
			"byteLength":48,
			"byteOffset":10152,
			"target":34962
		},
		{
			"buffer":0,
			"byteLength":1152,
			"byteOffset":10200,
			"target":34962
		},
		{
			"buffer":0,
			"byteLength":1152,
			"byteOffset":11352,
			"target":34962
		},
		{
			"buffer":0,
			"byteLength":768,
			"byteOffset":12504,
			"target":34962
		},
		{
			"buffer":0,
			"byteLength":72,
			"byteOffset":13272,
			"target":34962
		},
		{
			"buffer":0,
			"byteLength":72,
			"byteOffset":13344,
			"target":34962
		},
		{
			"buffer":0,
			"byteLength":48,
			"byteOffset":13416,
			"target":34962
		},
		{
			"buffer":0,
			"byteLength":1152,
			"byteOffset":13464,
			"target":34962
		},
		{
			"buffer":0,
			"byteLength":1152,
			"byteOffset":14616,
			"target":34962
		},
		{
			"buffer":0,
			"byteLength":768,
			"byteOffset":15768,
			"target":34962
		},
		{
			"buffer":0,
			"byteLength":72,
			"byteOffset":16536,
			"target":34962
		},
		{
			"buffer":0,
			"byteLength":72,
			"byteOffset":16608,
			"target":34962
		},
		{
			"buffer":0,
			"byteLength":48,
			"byteOffset":16680,
			"target":34962
		},
		{
			"buffer":0,
			"byteLength":6528,
			"byteOffset":16728,
			"target":34962
		},
		{
			"buffer":0,
			"byteLength":6528,
			"byteOffset":23256,
			"target":34962
		},
		{
			"buffer":0,
			"byteLength":4352,
			"byteOffset":29784,
			"target":34962
		},
		{
			"buffer":0,
			"byteLength":2508,
			"byteOffset":34136,
			"target":34963
		},
		{
			"buffer":0,
			"byteLength":264,
			"byteOffset":36644,
			"target":34962
		},
		{
			"buffer":0,
			"byteLength":264,
			"byteOffset":36908,
			"target":34962
		},
		{
			"buffer":0,
			"byteLength":176,
			"byteOffset":37172,
			"target":34962
		},
		{
			"buffer":0,
			"byteLength":84,
			"byteOffset":37348,
			"target":34963
		},
		{
			"buffer":0,
			"byteLength":10488,
			"byteOffset":37432,
			"target":34962
		},
		{
			"buffer":0,
			"byteLength":10488,
			"byteOffset":47920,
			"target":34962
		},
		{
			"buffer":0,
			"byteLength":6992,
			"byteOffset":58408,
			"target":34962
		},
		{
			"buffer":0,
			"byteLength":4296,
			"byteOffset":65400,
			"target":34963
		},
		{
			"buffer":0,
			"byteLength":1560,
			"byteOffset":69696,
			"target":34962
		},
		{
			"buffer":0,
			"byteLength":1560,
			"byteOffset":71256,
			"target":34962
		},
		{
			"buffer":0,
			"byteLength":1040,
			"byteOffset":72816,
			"target":34962
		},
		{
			"buffer":0,
			"byteLength":744,
			"byteOffset":73856,
			"target":34963
		},
		{
			"buffer":0,
			"byteLength":19656,
			"byteOffset":74600,
			"target":34962
		},
		{
			"buffer":0,
			"byteLength":19656,
			"byteOffset":94256,
			"target":34962
		},
		{
			"buffer":0,
			"byteLength":13104,
			"byteOffset":113912,
			"target":34962
		},
		{
			"buffer":0,
			"byteLength":6876,
			"byteOffset":127016,
			"target":34963
		},
		{
			"buffer":0,
			"byteLength":240,
			"byteOffset":133892,
			"target":34962
		},
		{
			"buffer":0,
			"byteLength":240,
			"byteOffset":134132,
			"target":34962
		},
		{
			"buffer":0,
			"byteLength":160,
			"byteOffset":134372,
			"target":34962
		},
		{
			"buffer":0,
			"byteLength":108,
			"byteOffset":134532,
			"target":34963
		},
		{
			"buffer":0,
			"byteLength":288,
			"byteOffset":134640,
			"target":34962
		},
		{
			"buffer":0,
			"byteLength":288,
			"byteOffset":134928,
			"target":34962
		},
		{
			"buffer":0,
			"byteLength":192,
			"byteOffset":135216,
			"target":34962
		},
		{
			"buffer":0,
			"byteLength":72,
			"byteOffset":135408,
			"target":34963
		}
	],
	"samplers":[
		{
			"magFilter":9729,
			"minFilter":9987
		}
	],
	"buffers":[
		{
			"byteLength":135480,
			"uri":"scene.bin"
		}
	]
}
