{
	"asset":{
		"generator":"Khronos glTF Blender I/O v4.1.63",
		"version":"2.0"
	},
	"scene":0,
	"scenes":[
		{
			"name":"Scene",
			"nodes":[
				5
			]
		}
	],
	"nodes":[
		{
			"name":"wall"
		},
		{
			"mesh":0,
			"name":"wall_2_2_wall_0"
		},
		{
			"children":[
				1
			],
			"name":"wall_2_2",
			"translation":[
				-263.55242919921875,
				0,
				0
			]
		},
		{
			"children":[
				0,
				2
			],
			"name":"RootNode"
		},
		{
			"children":[
				3
			],
			"name":"929aa6176f16447eab5cdd38107506ad.fbx",
			"rotation":[
				0.70710688829422,
				0,
				0,
				0.7071066498756409
			],
			"scale":[
				0.009999999776482582,
				0.010000000707805157,
				0.010000000707805157
			]
		},
		{
			"children":[
				4
			],
			"name":"Sketchfab_model",
			"rotation":[
				-0.70710688829422,
				0,
				0,
				0.7071066498756409
			]
		}
	],
	"materials":[
		{
			"doubleSided":true,
			"name":"wall",
			"normalTexture":{
				"index":0
			},
			"pbrMetallicRoughness":{
				"baseColorTexture":{
					"index":1
				},
				"metallicFactor":0,
				"metallicRoughnessTexture":{
					"index":2
				}
			}
		}
	],
	"meshes":[
		{
			"name":"wall_2_2_wall_0",
			"primitives":[
				{
					"attributes":{
						"POSITION":0,
						"NORMAL":1,
						"TEXCOORD_0":2
					},
					"indices":3,
					"material":0
				}
			]
		}
	],
	"textures":[
		{
			"sampler":0,
			"source":0
		},
		{
			"sampler":0,
			"source":1
		},
		{
			"sampler":0,
			"source":2
		}
	],
	"images":[
		{
			"mimeType":"image/png",
			"name":"wall_normal",
			"uri":"wall_normal.png"
		},
		{
			"mimeType":"image/png",
			"name":"wall_baseColor",
			"uri":"wall_baseColor.png"
		},
		{
			"mimeType":"image/png",
			"name":"wall_metallicRoughness",
			"uri":"wall_metallicRoughness.png"
		}
	],
	"accessors":[
		{
			"bufferView":0,
			"componentType":5126,
			"count":328,
			"max":[
				88.77412414550781,
				375.371337890625,
				96.60285949707031
			],
			"min":[
				0,
				0,
				0
			],
			"type":"VEC3"
		},
		{
			"bufferView":1,
			"componentType":5126,
			"count":328,
			"type":"VEC3"
		},
		{
			"bufferView":2,
			"componentType":5126,
			"count":328,
			"type":"VEC2"
		},
		{
			"bufferView":3,
			"componentType":5123,
			"count":906,
			"type":"SCALAR"
		}
	],
	"bufferViews":[
		{
			"buffer":0,
			"byteLength":3936,
			"byteOffset":0,
			"target":34962
		},
		{
			"buffer":0,
			"byteLength":3936,
			"byteOffset":3936,
			"target":34962
		},
		{
			"buffer":0,
			"byteLength":2624,
			"byteOffset":7872,
			"target":34962
		},
		{
			"buffer":0,
			"byteLength":1812,
			"byteOffset":10496,
			"target":34963
		}
	],
	"samplers":[
		{
			"magFilter":9729,
			"minFilter":9987
		}
	],
	"buffers":[
		{
			"byteLength":12308,
			"uri":"column.bin"
		}
	]
}
