{
	"asset":{
		"generator":"Khronos glTF Blender I/O v4.1.63",
		"version":"2.0"
	},
	"scene":0,
	"scenes":[
		{
			"name":"Scene",
			"nodes":[
				4
			]
		}
	],
	"nodes":[
		{
			"mesh":0,
			"name":"Ramp01_edit_Atlas_1_0.001",
			"rotation":[
				-0.9993987679481506,
				0.005350444931536913,
				0.0014179183635860682,
				0.03422713279724121
			],
			"scale":[
				-1,
				-0.9999996423721313,
				-0.9999998211860657
			],
			"translation":[
				-0.44037535786628723,
				0.002357660559937358,
				0.0006247469573281705
			]
		},
		{
			"children":[
				0
			],
			"name":"Ramp01_edit",
			"rotation":[
				0.002690499648451805,
				0.9997947216033936,
				0.02007203735411167,
				0.0006555052823387086
			],
			"scale":[
				36.2921028137207,
				36.29209899902344,
				36.29207992553711
			],
			"translation":[
				0.03158301115036011,
				0,
				0
			]
		},
		{
			"children":[
				1
			],
			"name":"RootNode"
		},
		{
			"children":[
				2
			],
			"name":"220479405ba54147a93f0e6ad37c35ed.fbx",
			"rotation":[
				0.70710688829422,
				0,
				0,
				0.7071066498756409
			],
			"scale":[
				0.009999999776482582,
				0.009999999776482582,
				0.009999999776482582
			]
		},
		{
			"children":[
				3
			],
			"name":"Sketchfab_model",
			"rotation":[
				-0.6216508150100708,
				0,
				0,
				0.7832946181297302
			],
			"translation":[
				0,
				-0.03703951835632324,
				-0.6835227012634277
			]
		}
	],
	"materials":[
		{
			"doubleSided":true,
			"name":"Atlas_1",
			"normalTexture":{
				"index":0
			},
			"pbrMetallicRoughness":{
				"baseColorTexture":{
					"index":1
				},
				"metallicFactor":0,
				"roughnessFactor":0.7976481318473816
			}
		}
	],
	"meshes":[
		{
			"name":"Ramp01_edit_Atlas_1_0.001",
			"primitives":[
				{
					"attributes":{
						"POSITION":0,
						"NORMAL":1,
						"TEXCOORD_0":2,
						"TEXCOORD_1":3
					},
					"indices":4,
					"material":0
				}
			]
		}
	],
	"textures":[
		{
			"sampler":0,
			"source":0
		},
		{
			"sampler":0,
			"source":1
		}
	],
	"images":[
		{
			"mimeType":"image/png",
			"name":"Atlas_1_normal",
			"uri":"Atlas_1_normal.png"
		},
		{
			"mimeType":"image/png",
			"name":"Atlas_1_baseColor",
			"uri":"Atlas_1_baseColor.png"
		}
	],
	"accessors":[
		{
			"bufferView":0,
			"componentType":5126,
			"count":146,
			"max":[
				-0.4377853274345398,
				6.173130512237549,
				10
			],
			"min":[
				-2.582066774368286,
				-8.791694199317135e-06,
				-9.999999046325684
			],
			"type":"VEC3"
		},
		{
			"bufferView":1,
			"componentType":5126,
			"count":146,
			"type":"VEC3"
		},
		{
			"bufferView":2,
			"componentType":5126,
			"count":146,
			"type":"VEC2"
		},
		{
			"bufferView":3,
			"componentType":5126,
			"count":146,
			"type":"VEC2"
		},
		{
			"bufferView":4,
			"componentType":5123,
			"count":288,
			"type":"SCALAR"
		}
	],
	"bufferViews":[
		{
			"buffer":0,
			"byteLength":1752,
			"byteOffset":0,
			"target":34962
		},
		{
			"buffer":0,
			"byteLength":1752,
			"byteOffset":1752,
			"target":34962
		},
		{
			"buffer":0,
			"byteLength":1168,
			"byteOffset":3504,
			"target":34962
		},
		{
			"buffer":0,
			"byteLength":1168,
			"byteOffset":4672,
			"target":34962
		},
		{
			"buffer":0,
			"byteLength":576,
			"byteOffset":5840,
			"target":34963
		}
	],
	"samplers":[
		{
			"magFilter":9729,
			"minFilter":9987
		}
	],
	"buffers":[
		{
			"byteLength":6416,
			"uri":"scene.bin"
		}
	]
}
